<mxfile host="app.diagrams.net" modified="2024-03-22T11:19:43.168Z" agent="Mozilla/5.0 (Macintosh; Intel Mac OS X 10_15_7) AppleWebKit/537.36 (KHTML, like Gecko) Chrome/122.0.0.0 Safari/537.36" etag="RURo8FZe9lt8nRq_KR48" version="24.0.7" type="github">
  <diagram name="Page-1" id="I9OEZl-tiSUagi7ZoI_u">
    <mxGraphModel dx="5382" dy="1121" grid="1" gridSize="10" guides="1" tooltips="1" connect="1" arrows="1" fold="1" page="1" pageScale="1" pageWidth="827" pageHeight="1169" math="0" shadow="0">
      <root>
        <mxCell id="0" />
        <mxCell id="1" parent="0" />
        <UserObject label="" plantUmlData="{&#xa;  &quot;data&quot;: &quot;@startuml\nclass com.baozun.dempapp.demoservice.start.Application {\n+ {static} void main(String[])\n}\nclass com.baozun.application.name.microservice.name.cap.process.method.DemoAMethodProcess {\n}\nclass com.baozun.application.name.microservice.name.cap.api.impl.demoapi.DemoAAPIImpl {\n}\nclass com.baozun.application.name.microservice.name.cap.process.task.DemoATaskProcess {\n}\nclass com.baozun.application.name.microservice.name.cap.process.mqconsumer.DemoMqConsumerProcess {\n}\nclass com.baozun.application.name.microservice.name.cap.api.demoaapi.DemoAAPIResp {\n}\ninterface com.baozun.application.name.microservice.name.cap.api.demoaapi.DemoAAPI {\n}\ninterface com.baozun.applicationname.microservicename.dev.process.logic.convert.UserConvert {\n~ {static} UserConvert USER_CONVERT\n~ List&lt;UserResp&gt; convert2UserResps(List&lt;User&gt;)\n~ UserResp convert2UserResp(User)\n}\nclass com.baozun.application.name.microservice.name.cap.database.dao.AAPIDao {\n}\nclass com.baozun.application.name.microservice.name.cap.api.demoaapi.DemoAAPIReq {\n}\nclass com.baozun.application.name.microservice.name.cap.database.po.table.AAPIPO {\n}\nclass com.baozun.applicationname.microservicename.dev.process.logic.constant.CommonConstants {\n+ {static} Integer DATA_DEL\n+ {static} Integer DATA_NOT_DEL\n}\nclass Main {\n+ {static} void main(String[])\n}\nclass com.baozun.application.name.microservice.name.cap.process.api.AAPIProcess {\n}\nclass com.baozun.dempapp.demoservice.start.config.SwaggerConfig {\n- String appName\n+ Docket api()\n- ApiInfo apiInfo()\n+ {static} BeanPostProcessor springfoxHandlerProviderBeanPostProcessor()\n}\nclass com.baozun.test.one.Test {\n+ void test()\n}\n@enduml&quot;,&#xa;  &quot;format&quot;: &quot;svg&quot;&#xa;}" id="fXyq3lxdoWEQtrdsVO-e-1">
          <mxCell style="shape=image;noLabel=1;verticalAlign=top;aspect=fixed;imageAspect=0;image=data:image/svg+xml,PD94bWwgdmVyc2lvbj0iMS4wIiBlbmNvZGluZz0idXMtYXNjaWkiIHN0YW5kYWxvbmU9Im5vIj8+PHN2ZyB4bWxucz0iaHR0cDovL3d3dy53My5vcmcvMjAwMC9zdmciIHhtbG5zOnhsaW5rPSJodHRwOi8vd3d3LnczLm9yZy8xOTk5L3hsaW5rIiBjb250ZW50U3R5bGVUeXBlPSJ0ZXh0L2NzcyIgaGVpZ2h0PSI4OTNweCIgcHJlc2VydmVBc3BlY3RSYXRpbz0ibm9uZSIgc3R5bGU9IndpZHRoOjQxOTRweDtoZWlnaHQ6ODkzcHg7YmFja2dyb3VuZDojRkZGRkZGOyIgdmVyc2lvbj0iMS4xIiB2aWV3Qm94PSIwIDAgNDE5NCA4OTMiIHdpZHRoPSI0MTk0cHgiIHpvb21BbmRQYW49Im1hZ25pZnkiPjxkZWZzLz48Zz48IS0tY2x1c3RlciBjb20tLT48ZyBpZD0iY2x1c3Rlcl9jb20iPjxwYXRoIGQ9Ik04LjUsNiBMMzEuNSw2IEEzLjc1LDMuNzUgMCAwIDEgMzQsOC41IEw0MSwyNi45ODQ0IEw0MDA2LjUsMjYuOTg0NCBBMi41LDIuNSAwIDAgMSA0MDA5LDI5LjQ4NDQgTDQwMDksODg0IEEyLjUsMi41IDAgMCAxIDQwMDYuNSw4ODYuNSBMOC41LDg4Ni41IEEyLjUsMi41IDAgMCAxIDYsODg0IEw2LDguNSBBMi41LDIuNSAwIDAgMSA4LjUsNiAiIGZpbGw9Im5vbmUiIHN0eWxlPSJzdHJva2U6IzAwMDAwMDtzdHJva2Utd2lkdGg6MS41OyIvPjxsaW5lIHN0eWxlPSJzdHJva2U6IzAwMDAwMDtzdHJva2Utd2lkdGg6MS41OyIgeDE9IjYiIHgyPSI0MSIgeTE9IjI2Ljk4NDQiIHkyPSIyNi45ODQ0Ii8+PHRleHQgZmlsbD0iIzAwMDAwMCIgZm9udC1mYW1pbHk9InNhbnMtc2VyaWYiIGZvbnQtc2l6ZT0iMTQiIGZvbnQtd2VpZ2h0PSJib2xkIiBsZW5ndGhBZGp1c3Q9InNwYWNpbmciIHRleHRMZW5ndGg9IjIyIiB4PSIxMCIgeT0iMjEuMjM0NCI+Y29tPC90ZXh0PjwvZz48IS0tY2x1c3RlciBiYW96dW4tLT48ZyBpZD0iY2x1c3Rlcl9iYW96dW4iPjxwYXRoIGQ9Ik0zMi41LDQ3IEw3NS41LDQ3IEEzLjc1LDMuNzUgMCAwIDEgNzgsNDkuNSBMODUsNjcuOTg0NCBMMzk4Mi41LDY3Ljk4NDQgQTIuNSwyLjUgMCAwIDEgMzk4NSw3MC40ODQ0IEwzOTg1LDg2MCBBMi41LDIuNSAwIDAgMSAzOTgyLjUsODYyLjUgTDMyLjUsODYyLjUgQTIuNSwyLjUgMCAwIDEgMzAsODYwIEwzMCw0OS41IEEyLjUsMi41IDAgMCAxIDMyLjUsNDcgIiBmaWxsPSJub25lIiBzdHlsZT0ic3Ryb2tlOiMwMDAwMDA7c3Ryb2tlLXdpZHRoOjEuNTsiLz48bGluZSBzdHlsZT0ic3Ryb2tlOiMwMDAwMDA7c3Ryb2tlLXdpZHRoOjEuNTsiIHgxPSIzMCIgeDI9Ijg1IiB5MT0iNjcuOTg0NCIgeTI9IjY3Ljk4NDQiLz48dGV4dCBmaWxsPSIjMDAwMDAwIiBmb250LWZhbWlseT0ic2Fucy1zZXJpZiIgZm9udC1zaXplPSIxNCIgZm9udC13ZWlnaHQ9ImJvbGQiIGxlbmd0aEFkanVzdD0ic3BhY2luZyIgdGV4dExlbmd0aD0iNDIiIHg9IjM0IiB5PSI2Mi4yMzQ0Ij5iYW96dW48L3RleHQ+PC9nPjwhLS1jbHVzdGVyIGRlbXBhcHAtLT48ZyBpZD0iY2x1c3Rlcl9kZW1wYXBwIj48cGF0aCBkPSJNMzE1OS41LDIyMiBMMzIxMC41LDIyMiBBMy43NSwzLjc1IDAgMCAxIDMyMTMsMjI0LjUgTDMyMjAsMjQyLjk4NDQgTDM5NTguNSwyNDIuOTg0NCBBMi41LDIuNSAwIDAgMSAzOTYxLDI0NS40ODQ0IEwzOTYxLDU3MS41IEEyLjUsMi41IDAgMCAxIDM5NTguNSw1NzQgTDMxNTkuNSw1NzQgQTIuNSwyLjUgMCAwIDEgMzE1Nyw1NzEuNSBMMzE1NywyMjQuNSBBMi41LDIuNSAwIDAgMSAzMTU5LjUsMjIyICIgZmlsbD0ibm9uZSIgc3R5bGU9InN0cm9rZTojMDAwMDAwO3N0cm9rZS13aWR0aDoxLjU7Ii8+PGxpbmUgc3R5bGU9InN0cm9rZTojMDAwMDAwO3N0cm9rZS13aWR0aDoxLjU7IiB4MT0iMzE1NyIgeDI9IjMyMjAiIHkxPSIyNDIuOTg0NCIgeTI9IjI0Mi45ODQ0Ii8+PHRleHQgZmlsbD0iIzAwMDAwMCIgZm9udC1mYW1pbHk9InNhbnMtc2VyaWYiIGZvbnQtc2l6ZT0iMTQiIGZvbnQtd2VpZ2h0PSJib2xkIiBsZW5ndGhBZGp1c3Q9InNwYWNpbmciIHRleHRMZW5ndGg9IjUwIiB4PSIzMTYxIiB5PSIyMzcuMjM0NCI+ZGVtcGFwcDwvdGV4dD48L2c+PCEtLWNsdXN0ZXIgZGVtb3NlcnZpY2UtLT48ZyBpZD0iY2x1c3Rlcl9kZW1vc2VydmljZSI+PHBhdGggZD0iTTMxODMuNSwyNjMgTDMyNjIuNSwyNjMgQTMuNzUsMy43NSAwIDAgMSAzMjY1LDI2NS41IEwzMjcyLDI4My45ODQ0IEwzOTM0LjUsMjgzLjk4NDQgQTIuNSwyLjUgMCAwIDEgMzkzNywyODYuNDg0NCBMMzkzNyw1NDcuNSBBMi41LDIuNSAwIDAgMSAzOTM0LjUsNTUwIEwzMTgzLjUsNTUwIEEyLjUsMi41IDAgMCAxIDMxODEsNTQ3LjUgTDMxODEsMjY1LjUgQTIuNSwyLjUgMCAwIDEgMzE4My41LDI2MyAiIGZpbGw9Im5vbmUiIHN0eWxlPSJzdHJva2U6IzAwMDAwMDtzdHJva2Utd2lkdGg6MS41OyIvPjxsaW5lIHN0eWxlPSJzdHJva2U6IzAwMDAwMDtzdHJva2Utd2lkdGg6MS41OyIgeDE9IjMxODEiIHgyPSIzMjcyIiB5MT0iMjgzLjk4NDQiIHkyPSIyODMuOTg0NCIvPjx0ZXh0IGZpbGw9IiMwMDAwMDAiIGZvbnQtZmFtaWx5PSJzYW5zLXNlcmlmIiBmb250LXNpemU9IjE0IiBmb250LXdlaWdodD0iYm9sZCIgbGVuZ3RoQWRqdXN0PSJzcGFjaW5nIiB0ZXh0TGVuZ3RoPSI3OCIgeD0iMzE4NSIgeT0iMjc4LjIzNDQiPmRlbW9zZXJ2aWNlPC90ZXh0PjwvZz48IS0tY2x1c3RlciBzdGFydC0tPjxnIGlkPSJjbHVzdGVyX3N0YXJ0Ij48cGF0aCBkPSJNMzIwNy41LDMwNCBMMzI0My41LDMwNCBBMy43NSwzLjc1IDAgMCAxIDMyNDYsMzA2LjUgTDMyNTMsMzI0Ljk4NDQgTDM5MTAuNSwzMjQuOTg0NCBBMi41LDIuNSAwIDAgMSAzOTEzLDMyNy40ODQ0IEwzOTEzLDUyMy41IEEyLjUsMi41IDAgMCAxIDM5MTAuNSw1MjYgTDMyMDcuNSw1MjYgQTIuNSwyLjUgMCAwIDEgMzIwNSw1MjMuNSBMMzIwNSwzMDYuNSBBMi41LDIuNSAwIDAgMSAzMjA3LjUsMzA0ICIgZmlsbD0ibm9uZSIgc3R5bGU9InN0cm9rZTojMDAwMDAwO3N0cm9rZS13aWR0aDoxLjU7Ii8+PGxpbmUgc3R5bGU9InN0cm9rZTojMDAwMDAwO3N0cm9rZS13aWR0aDoxLjU7IiB4MT0iMzIwNSIgeDI9IjMyNTMiIHkxPSIzMjQuOTg0NCIgeTI9IjMyNC45ODQ0Ii8+PHRleHQgZmlsbD0iIzAwMDAwMCIgZm9udC1mYW1pbHk9InNhbnMtc2VyaWYiIGZvbnQtc2l6ZT0iMTQiIGZvbnQtd2VpZ2h0PSJib2xkIiBsZW5ndGhBZGp1c3Q9InNwYWNpbmciIHRleHRMZW5ndGg9IjM1IiB4PSIzMjA5IiB5PSIzMTkuMjM0NCI+c3RhcnQ8L3RleHQ+PC9nPjwhLS1jbHVzdGVyIGNvbmZpZy0tPjxnIGlkPSJjbHVzdGVyX2NvbmZpZyI+PHBhdGggZD0iTTM0MDUuNSwzNDUgTDM0NDguNSwzNDUgQTMuNzUsMy43NSAwIDAgMSAzNDUxLDM0Ny41IEwzNDU4LDM2NS45ODQ0IEwzODg2LjUsMzY1Ljk4NDQgQTIuNSwyLjUgMCAwIDEgMzg4OSwzNjguNDg0NCBMMzg4OSw0OTkuNSBBMi41LDIuNSAwIDAgMSAzODg2LjUsNTAyIEwzNDA1LjUsNTAyIEEyLjUsMi41IDAgMCAxIDM0MDMsNDk5LjUgTDM0MDMsMzQ3LjUgQTIuNSwyLjUgMCAwIDEgMzQwNS41LDM0NSAiIGZpbGw9Im5vbmUiIHN0eWxlPSJzdHJva2U6IzAwMDAwMDtzdHJva2Utd2lkdGg6MS41OyIvPjxsaW5lIHN0eWxlPSJzdHJva2U6IzAwMDAwMDtzdHJva2Utd2lkdGg6MS41OyIgeDE9IjM0MDMiIHgyPSIzNDU4IiB5MT0iMzY1Ljk4NDQiIHkyPSIzNjUuOTg0NCIvPjx0ZXh0IGZpbGw9IiMwMDAwMDAiIGZvbnQtZmFtaWx5PSJzYW5zLXNlcmlmIiBmb250LXNpemU9IjE0IiBmb250LXdlaWdodD0iYm9sZCIgbGVuZ3RoQWRqdXN0PSJzcGFjaW5nIiB0ZXh0TGVuZ3RoPSI0MiIgeD0iMzQwNyIgeT0iMzYwLjIzNDQiPmNvbmZpZzwvdGV4dD48L2c+PCEtLWNsdXN0ZXIgYXBwbGljYXRpb24tLT48ZyBpZD0iY2x1c3Rlcl9hcHBsaWNhdGlvbiI+PHBhdGggZD0iTTExMjAuNSw4OCBMMTE5OC41LDg4IEEzLjc1LDMuNzUgMCAwIDEgMTIwMSw5MC41IEwxMjA4LDEwOC45ODQ0IEwzMTMwLjUsMTA4Ljk4NDQgQTIuNSwyLjUgMCAwIDEgMzEzMywxMTEuNDg0NCBMMzEzMyw4MzYgQTIuNSwyLjUgMCAwIDEgMzEzMC41LDgzOC41IEwxMTIwLjUsODM4LjUgQTIuNSwyLjUgMCAwIDEgMTExOCw4MzYgTDExMTgsOTAuNSBBMi41LDIuNSAwIDAgMSAxMTIwLjUsODggIiBmaWxsPSJub25lIiBzdHlsZT0ic3Ryb2tlOiMwMDAwMDA7c3Ryb2tlLXdpZHRoOjEuNTsiLz48bGluZSBzdHlsZT0ic3Ryb2tlOiMwMDAwMDA7c3Ryb2tlLXdpZHRoOjEuNTsiIHgxPSIxMTE4IiB4Mj0iMTIwOCIgeTE9IjEwOC45ODQ0IiB5Mj0iMTA4Ljk4NDQiLz48dGV4dCBmaWxsPSIjMDAwMDAwIiBmb250LWZhbWlseT0ic2Fucy1zZXJpZiIgZm9udC1zaXplPSIxNCIgZm9udC13ZWlnaHQ9ImJvbGQiIGxlbmd0aEFkanVzdD0ic3BhY2luZyIgdGV4dExlbmd0aD0iNzciIHg9IjExMjIiIHk9IjEwMy4yMzQ0Ij5hcHBsaWNhdGlvbjwvdGV4dD48L2c+PCEtLWNsdXN0ZXIgbmFtZS0tPjxnIGlkPSJjbHVzdGVyX25hbWUiPjxwYXRoIGQ9Ik0xMTQ0LjUsMTI5IEwxMTc0LjUsMTI5IEEzLjc1LDMuNzUgMCAwIDEgMTE3NywxMzEuNSBMMTE4NCwxNDkuOTg0NCBMMzEwNi41LDE0OS45ODQ0IEEyLjUsMi41IDAgMCAxIDMxMDksMTUyLjQ4NDQgTDMxMDksODEyIEEyLjUsMi41IDAgMCAxIDMxMDYuNSw4MTQuNSBMMTE0NC41LDgxNC41IEEyLjUsMi41IDAgMCAxIDExNDIsODEyIEwxMTQyLDEzMS41IEEyLjUsMi41IDAgMCAxIDExNDQuNSwxMjkgIiBmaWxsPSJub25lIiBzdHlsZT0ic3Ryb2tlOiMwMDAwMDA7c3Ryb2tlLXdpZHRoOjEuNTsiLz48bGluZSBzdHlsZT0ic3Ryb2tlOiMwMDAwMDA7c3Ryb2tlLXdpZHRoOjEuNTsiIHgxPSIxMTQyIiB4Mj0iMTE4NCIgeTE9IjE0OS45ODQ0IiB5Mj0iMTQ5Ljk4NDQiLz48dGV4dCBmaWxsPSIjMDAwMDAwIiBmb250LWZhbWlseT0ic2Fucy1zZXJpZiIgZm9udC1zaXplPSIxNCIgZm9udC13ZWlnaHQ9ImJvbGQiIGxlbmd0aEFkanVzdD0ic3BhY2luZyIgdGV4dExlbmd0aD0iMjkiIHg9IjExNDYiIHk9IjE0NC4yMzQ0Ij5uYW1lPC90ZXh0PjwvZz48IS0tY2x1c3RlciBtaWNyb3NlcnZpY2UtLT48ZyBpZD0iY2x1c3Rlcl9taWNyb3NlcnZpY2UiPjxwYXRoIGQ9Ik0xMTY4LjUsMTcwIEwxMjU0LjUsMTcwIEEzLjc1LDMuNzUgMCAwIDEgMTI1NywxNzIuNSBMMTI2NCwxOTAuOTg0NCBMMzA4Mi41LDE5MC45ODQ0IEEyLjUsMi41IDAgMCAxIDMwODUsMTkzLjQ4NDQgTDMwODUsNzg4IEEyLjUsMi41IDAgMCAxIDMwODIuNSw3OTAuNSBMMTE2OC41LDc5MC41IEEyLjUsMi41IDAgMCAxIDExNjYsNzg4IEwxMTY2LDE3Mi41IEEyLjUsMi41IDAgMCAxIDExNjguNSwxNzAgIiBmaWxsPSJub25lIiBzdHlsZT0ic3Ryb2tlOiMwMDAwMDA7c3Ryb2tlLXdpZHRoOjEuNTsiLz48bGluZSBzdHlsZT0ic3Ryb2tlOiMwMDAwMDA7c3Ryb2tlLXdpZHRoOjEuNTsiIHgxPSIxMTY2IiB4Mj0iMTI2NCIgeTE9IjE5MC45ODQ0IiB5Mj0iMTkwLjk4NDQiLz48dGV4dCBmaWxsPSIjMDAwMDAwIiBmb250LWZhbWlseT0ic2Fucy1zZXJpZiIgZm9udC1zaXplPSIxNCIgZm9udC13ZWlnaHQ9ImJvbGQiIGxlbmd0aEFkanVzdD0ic3BhY2luZyIgdGV4dExlbmd0aD0iODUiIHg9IjExNzAiIHk9IjE4NS4yMzQ0Ij5taWNyb3NlcnZpY2U8L3RleHQ+PC9nPjwhLS1jbHVzdGVyIG5hbWUtLT48ZyBpZD0iY2x1c3Rlcl9uYW1lIj48cGF0aCBkPSJNMTE5Mi41LDIxMSBMMTIyMi41LDIxMSBBMy43NSwzLjc1IDAgMCAxIDEyMjUsMjEzLjUgTDEyMzIsMjMxLjk4NDQgTDMwNTguNSwyMzEuOTg0NCBBMi41LDIuNSAwIDAgMSAzMDYxLDIzNC40ODQ0IEwzMDYxLDc2NCBBMi41LDIuNSAwIDAgMSAzMDU4LjUsNzY2LjUgTDExOTIuNSw3NjYuNSBBMi41LDIuNSAwIDAgMSAxMTkwLDc2NCBMMTE5MCwyMTMuNSBBMi41LDIuNSAwIDAgMSAxMTkyLjUsMjExICIgZmlsbD0ibm9uZSIgc3R5bGU9InN0cm9rZTojMDAwMDAwO3N0cm9rZS13aWR0aDoxLjU7Ii8+PGxpbmUgc3R5bGU9InN0cm9rZTojMDAwMDAwO3N0cm9rZS13aWR0aDoxLjU7IiB4MT0iMTE5MCIgeDI9IjEyMzIiIHkxPSIyMzEuOTg0NCIgeTI9IjIzMS45ODQ0Ii8+PHRleHQgZmlsbD0iIzAwMDAwMCIgZm9udC1mYW1pbHk9InNhbnMtc2VyaWYiIGZvbnQtc2l6ZT0iMTQiIGZvbnQtd2VpZ2h0PSJib2xkIiBsZW5ndGhBZGp1c3Q9InNwYWNpbmciIHRleHRMZW5ndGg9IjI5IiB4PSIxMTk0IiB5PSIyMjYuMjM0NCI+bmFtZTwvdGV4dD48L2c+PCEtLWNsdXN0ZXIgY2FwLS0+PGcgaWQ9ImNsdXN0ZXJfY2FwIj48cGF0aCBkPSJNMTIxNi41LDI1MiBMMTIzOC41LDI1MiBBMy43NSwzLjc1IDAgMCAxIDEyNDEsMjU0LjUgTDEyNDgsMjcyLjk4NDQgTDMwMzQuNSwyNzIuOTg0NCBBMi41LDIuNSAwIDAgMSAzMDM3LDI3NS40ODQ0IEwzMDM3LDc0MCBBMi41LDIuNSAwIDAgMSAzMDM0LjUsNzQyLjUgTDEyMTYuNSw3NDIuNSBBMi41LDIuNSAwIDAgMSAxMjE0LDc0MCBMMTIxNCwyNTQuNSBBMi41LDIuNSAwIDAgMSAxMjE2LjUsMjUyICIgZmlsbD0ibm9uZSIgc3R5bGU9InN0cm9rZTojMDAwMDAwO3N0cm9rZS13aWR0aDoxLjU7Ii8+PGxpbmUgc3R5bGU9InN0cm9rZTojMDAwMDAwO3N0cm9rZS13aWR0aDoxLjU7IiB4MT0iMTIxNCIgeDI9IjEyNDgiIHkxPSIyNzIuOTg0NCIgeTI9IjI3Mi45ODQ0Ii8+PHRleHQgZmlsbD0iIzAwMDAwMCIgZm9udC1mYW1pbHk9InNhbnMtc2VyaWYiIGZvbnQtc2l6ZT0iMTQiIGZvbnQtd2VpZ2h0PSJib2xkIiBsZW5ndGhBZGp1c3Q9InNwYWNpbmciIHRleHRMZW5ndGg9IjIxIiB4PSIxMjE4IiB5PSIyNjcuMjM0NCI+Y2FwPC90ZXh0PjwvZz48IS0tY2x1c3RlciBwcm9jZXNzLS0+PGcgaWQ9ImNsdXN0ZXJfcHJvY2VzcyI+PHBhdGggZD0iTTIxNzEuNSwzMzQgTDIyMjEuNSwzMzQgQTMuNzUsMy43NSAwIDAgMSAyMjI0LDMzNi41IEwyMjMxLDM1NC45ODQ0IEwzMDEwLjUsMzU0Ljk4NDQgQTIuNSwyLjUgMCAwIDEgMzAxMywzNTcuNDg0NCBMMzAxMyw0OTMuNSBBMi41LDIuNSAwIDAgMSAzMDEwLjUsNDk2IEwyMTcxLjUsNDk2IEEyLjUsMi41IDAgMCAxIDIxNjksNDkzLjUgTDIxNjksMzM2LjUgQTIuNSwyLjUgMCAwIDEgMjE3MS41LDMzNCAiIGZpbGw9Im5vbmUiIHN0eWxlPSJzdHJva2U6IzAwMDAwMDtzdHJva2Utd2lkdGg6MS41OyIvPjxsaW5lIHN0eWxlPSJzdHJva2U6IzAwMDAwMDtzdHJva2Utd2lkdGg6MS41OyIgeDE9IjIxNjkiIHgyPSIyMjMxIiB5MT0iMzU0Ljk4NDQiIHkyPSIzNTQuOTg0NCIvPjx0ZXh0IGZpbGw9IiMwMDAwMDAiIGZvbnQtZmFtaWx5PSJzYW5zLXNlcmlmIiBmb250LXNpemU9IjE0IiBmb250LXdlaWdodD0iYm9sZCIgbGVuZ3RoQWRqdXN0PSJzcGFjaW5nIiB0ZXh0TGVuZ3RoPSI0OSIgeD0iMjE3MyIgeT0iMzQ5LjIzNDQiPnByb2Nlc3M8L3RleHQ+PC9nPjwhLS1jbHVzdGVyIG1ldGhvZC0tPjxnIGlkPSJjbHVzdGVyX21ldGhvZCI+PHBhdGggZD0iTTI4MDEuNSwzNzUgTDI4NDUuNSwzNzUgQTMuNzUsMy43NSAwIDAgMSAyODQ4LDM3Ny41IEwyODU1LDM5NS45ODQ0IEwyOTg2LjUsMzk1Ljk4NDQgQTIuNSwyLjUgMCAwIDEgMjk4OSwzOTguNDg0NCBMMjk4OSw0NjkuNSBBMi41LDIuNSAwIDAgMSAyOTg2LjUsNDcyIEwyODAxLjUsNDcyIEEyLjUsMi41IDAgMCAxIDI3OTksNDY5LjUgTDI3OTksMzc3LjUgQTIuNSwyLjUgMCAwIDEgMjgwMS41LDM3NSAiIGZpbGw9Im5vbmUiIHN0eWxlPSJzdHJva2U6IzAwMDAwMDtzdHJva2Utd2lkdGg6MS41OyIvPjxsaW5lIHN0eWxlPSJzdHJva2U6IzAwMDAwMDtzdHJva2Utd2lkdGg6MS41OyIgeDE9IjI3OTkiIHgyPSIyODU1IiB5MT0iMzk1Ljk4NDQiIHkyPSIzOTUuOTg0NCIvPjx0ZXh0IGZpbGw9IiMwMDAwMDAiIGZvbnQtZmFtaWx5PSJzYW5zLXNlcmlmIiBmb250LXNpemU9IjE0IiBmb250LXdlaWdodD0iYm9sZCIgbGVuZ3RoQWRqdXN0PSJzcGFjaW5nIiB0ZXh0TGVuZ3RoPSI0MyIgeD0iMjgwMyIgeT0iMzkwLjIzNDQiPm1ldGhvZDwvdGV4dD48L2c+PCEtLWNsdXN0ZXIgdGFzay0tPjxnIGlkPSJjbHVzdGVyX3Rhc2siPjxwYXRoIGQ9Ik0yNTk5LjUsMzc1IEwyNjI4LjUsMzc1IEEzLjc1LDMuNzUgMCAwIDEgMjYzMSwzNzcuNSBMMjYzOCwzOTUuOTg0NCBMMjc3Mi41LDM5NS45ODQ0IEEyLjUsMi41IDAgMCAxIDI3NzUsMzk4LjQ4NDQgTDI3NzUsNDY5LjUgQTIuNSwyLjUgMCAwIDEgMjc3Mi41LDQ3MiBMMjU5OS41LDQ3MiBBMi41LDIuNSAwIDAgMSAyNTk3LDQ2OS41IEwyNTk3LDM3Ny41IEEyLjUsMi41IDAgMCAxIDI1OTkuNSwzNzUgIiBmaWxsPSJub25lIiBzdHlsZT0ic3Ryb2tlOiMwMDAwMDA7c3Ryb2tlLXdpZHRoOjEuNTsiLz48bGluZSBzdHlsZT0ic3Ryb2tlOiMwMDAwMDA7c3Ryb2tlLXdpZHRoOjEuNTsiIHgxPSIyNTk3IiB4Mj0iMjYzOCIgeTE9IjM5NS45ODQ0IiB5Mj0iMzk1Ljk4NDQiLz48dGV4dCBmaWxsPSIjMDAwMDAwIiBmb250LWZhbWlseT0ic2Fucy1zZXJpZiIgZm9udC1zaXplPSIxNCIgZm9udC13ZWlnaHQ9ImJvbGQiIGxlbmd0aEFkanVzdD0ic3BhY2luZyIgdGV4dExlbmd0aD0iMjgiIHg9IjI2MDEiIHk9IjM5MC4yMzQ0Ij50YXNrPC90ZXh0PjwvZz48IS0tY2x1c3RlciBtcWNvbnN1bWVyLS0+PGcgaWQ9ImNsdXN0ZXJfbXFjb25zdW1lciI+PHBhdGggZD0iTTIzNjEuNSwzNzUgTDI0MzQuNSwzNzUgQTMuNzUsMy43NSAwIDAgMSAyNDM3LDM3Ny41IEwyNDQ0LDM5NS45ODQ0IEwyNTcwLjUsMzk1Ljk4NDQgQTIuNSwyLjUgMCAwIDEgMjU3MywzOTguNDg0NCBMMjU3Myw0NjkuNSBBMi41LDIuNSAwIDAgMSAyNTcwLjUsNDcyIEwyMzYxLjUsNDcyIEEyLjUsMi41IDAgMCAxIDIzNTksNDY5LjUgTDIzNTksMzc3LjUgQTIuNSwyLjUgMCAwIDEgMjM2MS41LDM3NSAiIGZpbGw9Im5vbmUiIHN0eWxlPSJzdHJva2U6IzAwMDAwMDtzdHJva2Utd2lkdGg6MS41OyIvPjxsaW5lIHN0eWxlPSJzdHJva2U6IzAwMDAwMDtzdHJva2Utd2lkdGg6MS41OyIgeDE9IjIzNTkiIHgyPSIyNDQ0IiB5MT0iMzk1Ljk4NDQiIHkyPSIzOTUuOTg0NCIvPjx0ZXh0IGZpbGw9IiMwMDAwMDAiIGZvbnQtZmFtaWx5PSJzYW5zLXNlcmlmIiBmb250LXNpemU9IjE0IiBmb250LXdlaWdodD0iYm9sZCIgbGVuZ3RoQWRqdXN0PSJzcGFjaW5nIiB0ZXh0TGVuZ3RoPSI3MiIgeD0iMjM2MyIgeT0iMzkwLjIzNDQiPm1xY29uc3VtZXI8L3RleHQ+PC9nPjwhLS1jbHVzdGVyIGFwaS0tPjxnIGlkPSJjbHVzdGVyX2FwaSI+PHBhdGggZD0iTTIxOTUuNSwzNzUgTDIyMTcuNSwzNzUgQTMuNzUsMy43NSAwIDAgMSAyMjIwLDM3Ny41IEwyMjI3LDM5NS45ODQ0IEwyMzMyLjUsMzk1Ljk4NDQgQTIuNSwyLjUgMCAwIDEgMjMzNSwzOTguNDg0NCBMMjMzNSw0NjkuNSBBMi41LDIuNSAwIDAgMSAyMzMyLjUsNDcyIEwyMTk1LjUsNDcyIEEyLjUsMi41IDAgMCAxIDIxOTMsNDY5LjUgTDIxOTMsMzc3LjUgQTIuNSwyLjUgMCAwIDEgMjE5NS41LDM3NSAiIGZpbGw9Im5vbmUiIHN0eWxlPSJzdHJva2U6IzAwMDAwMDtzdHJva2Utd2lkdGg6MS41OyIvPjxsaW5lIHN0eWxlPSJzdHJva2U6IzAwMDAwMDtzdHJva2Utd2lkdGg6MS41OyIgeDE9IjIxOTMiIHgyPSIyMjI3IiB5MT0iMzk1Ljk4NDQiIHkyPSIzOTUuOTg0NCIvPjx0ZXh0IGZpbGw9IiMwMDAwMDAiIGZvbnQtZmFtaWx5PSJzYW5zLXNlcmlmIiBmb250LXNpemU9IjE0IiBmb250LXdlaWdodD0iYm9sZCIgbGVuZ3RoQWRqdXN0PSJzcGFjaW5nIiB0ZXh0TGVuZ3RoPSIyMSIgeD0iMjE5NyIgeT0iMzkwLjIzNDQiPmFwaTwvdGV4dD48L2c+PCEtLWNsdXN0ZXIgYXBpLS0+PGcgaWQ9ImNsdXN0ZXJfYXBpIj48cGF0aCBkPSJNMTYwNC41LDI5MyBMMTYyNi41LDI5MyBBMy43NSwzLjc1IDAgMCAxIDE2MjksMjk1LjUgTDE2MzYsMzEzLjk4NDQgTDIxNDIuNSwzMTMuOTg0NCBBMi41LDIuNSAwIDAgMSAyMTQ1LDMxNi40ODQ0IEwyMTQ1LDcxNiBBMi41LDIuNSAwIDAgMSAyMTQyLjUsNzE4LjUgTDE2MDQuNSw3MTguNSBBMi41LDIuNSAwIDAgMSAxNjAyLDcxNiBMMTYwMiwyOTUuNSBBMi41LDIuNSAwIDAgMSAxNjA0LjUsMjkzICIgZmlsbD0ibm9uZSIgc3R5bGU9InN0cm9rZTojMDAwMDAwO3N0cm9rZS13aWR0aDoxLjU7Ii8+PGxpbmUgc3R5bGU9InN0cm9rZTojMDAwMDAwO3N0cm9rZS13aWR0aDoxLjU7IiB4MT0iMTYwMiIgeDI9IjE2MzYiIHkxPSIzMTMuOTg0NCIgeTI9IjMxMy45ODQ0Ii8+PHRleHQgZmlsbD0iIzAwMDAwMCIgZm9udC1mYW1pbHk9InNhbnMtc2VyaWYiIGZvbnQtc2l6ZT0iMTQiIGZvbnQtd2VpZ2h0PSJib2xkIiBsZW5ndGhBZGp1c3Q9InNwYWNpbmciIHRleHRMZW5ndGg9IjIxIiB4PSIxNjA2IiB5PSIzMDguMjM0NCI+YXBpPC90ZXh0PjwvZz48IS0tY2x1c3RlciBpbXBsLS0+PGcgaWQ9ImNsdXN0ZXJfaW1wbCI+PHBhdGggZD0iTTE5MjUuNSwzMzQgTDE5NTUuNSwzMzQgQTMuNzUsMy43NSAwIDAgMSAxOTU4LDMzNi41IEwxOTY1LDM1NC45ODQ0IEwyMTE4LjUsMzU0Ljk4NDQgQTIuNSwyLjUgMCAwIDEgMjEyMSwzNTcuNDg0NCBMMjEyMSw0OTMuNSBBMi41LDIuNSAwIDAgMSAyMTE4LjUsNDk2IEwxOTI1LjUsNDk2IEEyLjUsMi41IDAgMCAxIDE5MjMsNDkzLjUgTDE5MjMsMzM2LjUgQTIuNSwyLjUgMCAwIDEgMTkyNS41LDMzNCAiIGZpbGw9Im5vbmUiIHN0eWxlPSJzdHJva2U6IzAwMDAwMDtzdHJva2Utd2lkdGg6MS41OyIvPjxsaW5lIHN0eWxlPSJzdHJva2U6IzAwMDAwMDtzdHJva2Utd2lkdGg6MS41OyIgeDE9IjE5MjMiIHgyPSIxOTY1IiB5MT0iMzU0Ljk4NDQiIHkyPSIzNTQuOTg0NCIvPjx0ZXh0IGZpbGw9IiMwMDAwMDAiIGZvbnQtZmFtaWx5PSJzYW5zLXNlcmlmIiBmb250LXNpemU9IjE0IiBmb250LXdlaWdodD0iYm9sZCIgbGVuZ3RoQWRqdXN0PSJzcGFjaW5nIiB0ZXh0TGVuZ3RoPSIyOSIgeD0iMTkyNyIgeT0iMzQ5LjIzNDQiPmltcGw8L3RleHQ+PC9nPjwhLS1jbHVzdGVyIGRlbW9hcGktLT48ZyBpZD0iY2x1c3Rlcl9kZW1vYXBpIj48cGF0aCBkPSJNMTk0OS41LDM3NSBMMjAwMC41LDM3NSBBMy43NSwzLjc1IDAgMCAxIDIwMDMsMzc3LjUgTDIwMTAsMzk1Ljk4NDQgTDIwOTQuNSwzOTUuOTg0NCBBMi41LDIuNSAwIDAgMSAyMDk3LDM5OC40ODQ0IEwyMDk3LDQ2OS41IEEyLjUsMi41IDAgMCAxIDIwOTQuNSw0NzIgTDE5NDkuNSw0NzIgQTIuNSwyLjUgMCAwIDEgMTk0Nyw0NjkuNSBMMTk0NywzNzcuNSBBMi41LDIuNSAwIDAgMSAxOTQ5LjUsMzc1ICIgZmlsbD0ibm9uZSIgc3R5bGU9InN0cm9rZTojMDAwMDAwO3N0cm9rZS13aWR0aDoxLjU7Ii8+PGxpbmUgc3R5bGU9InN0cm9rZTojMDAwMDAwO3N0cm9rZS13aWR0aDoxLjU7IiB4MT0iMTk0NyIgeDI9IjIwMTAiIHkxPSIzOTUuOTg0NCIgeTI9IjM5NS45ODQ0Ii8+PHRleHQgZmlsbD0iIzAwMDAwMCIgZm9udC1mYW1pbHk9InNhbnMtc2VyaWYiIGZvbnQtc2l6ZT0iMTQiIGZvbnQtd2VpZ2h0PSJib2xkIiBsZW5ndGhBZGp1c3Q9InNwYWNpbmciIHRleHRMZW5ndGg9IjUwIiB4PSIxOTUxIiB5PSIzOTAuMjM0NCI+ZGVtb2FwaTwvdGV4dD48L2c+PCEtLWNsdXN0ZXIgZGVtb2FhcGktLT48ZyBpZD0iY2x1c3Rlcl9kZW1vYWFwaSI+PHBhdGggZD0iTTE2MjguNSwzNzUgTDE2ODYuNSwzNzUgQTMuNzUsMy43NSAwIDAgMSAxNjg5LDM3Ny41IEwxNjk2LDM5NS45ODQ0IEwxODk2LjUsMzk1Ljk4NDQgQTIuNSwyLjUgMCAwIDEgMTg5OSwzOTguNDg0NCBMMTg5OSw2OTIgQTIuNSwyLjUgMCAwIDEgMTg5Ni41LDY5NC41IEwxNjI4LjUsNjk0LjUgQTIuNSwyLjUgMCAwIDEgMTYyNiw2OTIgTDE2MjYsMzc3LjUgQTIuNSwyLjUgMCAwIDEgMTYyOC41LDM3NSAiIGZpbGw9Im5vbmUiIHN0eWxlPSJzdHJva2U6IzAwMDAwMDtzdHJva2Utd2lkdGg6MS41OyIvPjxsaW5lIHN0eWxlPSJzdHJva2U6IzAwMDAwMDtzdHJva2Utd2lkdGg6MS41OyIgeDE9IjE2MjYiIHgyPSIxNjk2IiB5MT0iMzk1Ljk4NDQiIHkyPSIzOTUuOTg0NCIvPjx0ZXh0IGZpbGw9IiMwMDAwMDAiIGZvbnQtZmFtaWx5PSJzYW5zLXNlcmlmIiBmb250LXNpemU9IjE0IiBmb250LXdlaWdodD0iYm9sZCIgbGVuZ3RoQWRqdXN0PSJzcGFjaW5nIiB0ZXh0TGVuZ3RoPSI1NyIgeD0iMTYzMCIgeT0iMzkwLjIzNDQiPmRlbW9hYXBpPC90ZXh0PjwvZz48IS0tY2x1c3RlciBkYXRhYmFzZS0tPjxnIGlkPSJjbHVzdGVyX2RhdGFiYXNlIj48cGF0aCBkPSJNMTI0MC41LDI5MyBMMTI5Ny41LDI5MyBBMy43NSwzLjc1IDAgMCAxIDEzMDAsMjk1LjUgTDEzMDcsMzEzLjk4NDQgTDE1NzUuNSwzMTMuOTg0NCBBMi41LDIuNSAwIDAgMSAxNTc4LDMxNi40ODQ0IEwxNTc4LDUxNy41IEEyLjUsMi41IDAgMCAxIDE1NzUuNSw1MjAgTDEyNDAuNSw1MjAgQTIuNSwyLjUgMCAwIDEgMTIzOCw1MTcuNSBMMTIzOCwyOTUuNSBBMi41LDIuNSAwIDAgMSAxMjQwLjUsMjkzICIgZmlsbD0ibm9uZSIgc3R5bGU9InN0cm9rZTojMDAwMDAwO3N0cm9rZS13aWR0aDoxLjU7Ii8+PGxpbmUgc3R5bGU9InN0cm9rZTojMDAwMDAwO3N0cm9rZS13aWR0aDoxLjU7IiB4MT0iMTIzOCIgeDI9IjEzMDciIHkxPSIzMTMuOTg0NCIgeTI9IjMxMy45ODQ0Ii8+PHRleHQgZmlsbD0iIzAwMDAwMCIgZm9udC1mYW1pbHk9InNhbnMtc2VyaWYiIGZvbnQtc2l6ZT0iMTQiIGZvbnQtd2VpZ2h0PSJib2xkIiBsZW5ndGhBZGp1c3Q9InNwYWNpbmciIHRleHRMZW5ndGg9IjU2IiB4PSIxMjQyIiB5PSIzMDguMjM0NCI+ZGF0YWJhc2U8L3RleHQ+PC9nPjwhLS1jbHVzdGVyIGRhby0tPjxnIGlkPSJjbHVzdGVyX2RhbyI+PHBhdGggZD0iTTE0NDIuNSwzNzUgTDE0NjQuNSwzNzUgQTMuNzUsMy43NSAwIDAgMSAxNDY3LDM3Ny41IEwxNDc0LDM5NS45ODQ0IEwxNTUxLjUsMzk1Ljk4NDQgQTIuNSwyLjUgMCAwIDEgMTU1NCwzOTguNDg0NCBMMTU1NCw0NjkuNSBBMi41LDIuNSAwIDAgMSAxNTUxLjUsNDcyIEwxNDQyLjUsNDcyIEEyLjUsMi41IDAgMCAxIDE0NDAsNDY5LjUgTDE0NDAsMzc3LjUgQTIuNSwyLjUgMCAwIDEgMTQ0Mi41LDM3NSAiIGZpbGw9Im5vbmUiIHN0eWxlPSJzdHJva2U6IzAwMDAwMDtzdHJva2Utd2lkdGg6MS41OyIvPjxsaW5lIHN0eWxlPSJzdHJva2U6IzAwMDAwMDtzdHJva2Utd2lkdGg6MS41OyIgeDE9IjE0NDAiIHgyPSIxNDc0IiB5MT0iMzk1Ljk4NDQiIHkyPSIzOTUuOTg0NCIvPjx0ZXh0IGZpbGw9IiMwMDAwMDAiIGZvbnQtZmFtaWx5PSJzYW5zLXNlcmlmIiBmb250LXNpemU9IjE0IiBmb250LXdlaWdodD0iYm9sZCIgbGVuZ3RoQWRqdXN0PSJzcGFjaW5nIiB0ZXh0TGVuZ3RoPSIyMSIgeD0iMTQ0NCIgeT0iMzkwLjIzNDQiPmRhbzwvdGV4dD48L2c+PCEtLWNsdXN0ZXIgcG8tLT48ZyBpZD0iY2x1c3Rlcl9wbyI+PHBhdGggZD0iTTEyNjQuNSwzMzQgTDEyNzkuNSwzMzQgQTMuNzUsMy43NSAwIDAgMSAxMjgyLDMzNi41IEwxMjg5LDM1NC45ODQ0IEwxNDEzLjUsMzU0Ljk4NDQgQTIuNSwyLjUgMCAwIDEgMTQxNiwzNTcuNDg0NCBMMTQxNiw0OTMuNSBBMi41LDIuNSAwIDAgMSAxNDEzLjUsNDk2IEwxMjY0LjUsNDk2IEEyLjUsMi41IDAgMCAxIDEyNjIsNDkzLjUgTDEyNjIsMzM2LjUgQTIuNSwyLjUgMCAwIDEgMTI2NC41LDMzNCAiIGZpbGw9Im5vbmUiIHN0eWxlPSJzdHJva2U6IzAwMDAwMDtzdHJva2Utd2lkdGg6MS41OyIvPjxsaW5lIHN0eWxlPSJzdHJva2U6IzAwMDAwMDtzdHJva2Utd2lkdGg6MS41OyIgeDE9IjEyNjIiIHgyPSIxMjg5IiB5MT0iMzU0Ljk4NDQiIHkyPSIzNTQuOTg0NCIvPjx0ZXh0IGZpbGw9IiMwMDAwMDAiIGZvbnQtZmFtaWx5PSJzYW5zLXNlcmlmIiBmb250LXNpemU9IjE0IiBmb250LXdlaWdodD0iYm9sZCIgbGVuZ3RoQWRqdXN0PSJzcGFjaW5nIiB0ZXh0TGVuZ3RoPSIxNCIgeD0iMTI2NiIgeT0iMzQ5LjIzNDQiPnBvPC90ZXh0PjwvZz48IS0tY2x1c3RlciB0YWJsZS0tPjxnIGlkPSJjbHVzdGVyX3RhYmxlIj48cGF0aCBkPSJNMTI4OC41LDM3NSBMMTMyNC41LDM3NSBBMy43NSwzLjc1IDAgMCAxIDEzMjcsMzc3LjUgTDEzMzQsMzk1Ljk4NDQgTDEzODkuNSwzOTUuOTg0NCBBMi41LDIuNSAwIDAgMSAxMzkyLDM5OC40ODQ0IEwxMzkyLDQ2OS41IEEyLjUsMi41IDAgMCAxIDEzODkuNSw0NzIgTDEyODguNSw0NzIgQTIuNSwyLjUgMCAwIDEgMTI4Niw0NjkuNSBMMTI4NiwzNzcuNSBBMi41LDIuNSAwIDAgMSAxMjg4LjUsMzc1ICIgZmlsbD0ibm9uZSIgc3R5bGU9InN0cm9rZTojMDAwMDAwO3N0cm9rZS13aWR0aDoxLjU7Ii8+PGxpbmUgc3R5bGU9InN0cm9rZTojMDAwMDAwO3N0cm9rZS13aWR0aDoxLjU7IiB4MT0iMTI4NiIgeDI9IjEzMzQiIHkxPSIzOTUuOTg0NCIgeTI9IjM5NS45ODQ0Ii8+PHRleHQgZmlsbD0iIzAwMDAwMCIgZm9udC1mYW1pbHk9InNhbnMtc2VyaWYiIGZvbnQtc2l6ZT0iMTQiIGZvbnQtd2VpZ2h0PSJib2xkIiBsZW5ndGhBZGp1c3Q9InNwYWNpbmciIHRleHRMZW5ndGg9IjM1IiB4PSIxMjkwIiB5PSIzOTAuMjM0NCI+dGFibGU8L3RleHQ+PC9nPjwhLS1jbHVzdGVyIGFwcGxpY2F0aW9ubmFtZS0tPjxnIGlkPSJjbHVzdGVyX2FwcGxpY2F0aW9ubmFtZSI+PHBhdGggZD0iTTI2Ni41LDE0Ny41IEwzNzMuNSwxNDcuNSBBMy43NSwzLjc1IDAgMCAxIDM3NiwxNTAgTDM4MywxNjguNDg0NCBMMTA5MS41LDE2OC40ODQ0IEEyLjUsMi41IDAgMCAxIDEwOTQsMTcwLjk4NDQgTDEwOTQsNjEyIEEyLjUsMi41IDAgMCAxIDEwOTEuNSw2MTQuNSBMMjY2LjUsNjE0LjUgQTIuNSwyLjUgMCAwIDEgMjY0LDYxMiBMMjY0LDE1MCBBMi41LDIuNSAwIDAgMSAyNjYuNSwxNDcuNSAiIGZpbGw9Im5vbmUiIHN0eWxlPSJzdHJva2U6IzAwMDAwMDtzdHJva2Utd2lkdGg6MS41OyIvPjxsaW5lIHN0eWxlPSJzdHJva2U6IzAwMDAwMDtzdHJva2Utd2lkdGg6MS41OyIgeDE9IjI2NCIgeDI9IjM4MyIgeTE9IjE2OC40ODQ0IiB5Mj0iMTY4LjQ4NDQiLz48dGV4dCBmaWxsPSIjMDAwMDAwIiBmb250LWZhbWlseT0ic2Fucy1zZXJpZiIgZm9udC1zaXplPSIxNCIgZm9udC13ZWlnaHQ9ImJvbGQiIGxlbmd0aEFkanVzdD0ic3BhY2luZyIgdGV4dExlbmd0aD0iMTA2IiB4PSIyNjgiIHk9IjE2Mi43MzQ0Ij5hcHBsaWNhdGlvbm5hbWU8L3RleHQ+PC9nPjwhLS1jbHVzdGVyIG1pY3Jvc2VydmljZW5hbWUtLT48ZyBpZD0iY2x1c3Rlcl9taWNyb3NlcnZpY2VuYW1lIj48cGF0aCBkPSJNMjkwLjUsMTg4LjUgTDQwNS41LDE4OC41IEEzLjc1LDMuNzUgMCAwIDEgNDA4LDE5MSBMNDE1LDIwOS40ODQ0IEwxMDY3LjUsMjA5LjQ4NDQgQTIuNSwyLjUgMCAwIDEgMTA3MCwyMTEuOTg0NCBMMTA3MCw1ODggQTIuNSwyLjUgMCAwIDEgMTA2Ny41LDU5MC41IEwyOTAuNSw1OTAuNSBBMi41LDIuNSAwIDAgMSAyODgsNTg4IEwyODgsMTkxIEEyLjUsMi41IDAgMCAxIDI5MC41LDE4OC41ICIgZmlsbD0ibm9uZSIgc3R5bGU9InN0cm9rZTojMDAwMDAwO3N0cm9rZS13aWR0aDoxLjU7Ii8+PGxpbmUgc3R5bGU9InN0cm9rZTojMDAwMDAwO3N0cm9rZS13aWR0aDoxLjU7IiB4MT0iMjg4IiB4Mj0iNDE1IiB5MT0iMjA5LjQ4NDQiIHkyPSIyMDkuNDg0NCIvPjx0ZXh0IGZpbGw9IiMwMDAwMDAiIGZvbnQtZmFtaWx5PSJzYW5zLXNlcmlmIiBmb250LXNpemU9IjE0IiBmb250LXdlaWdodD0iYm9sZCIgbGVuZ3RoQWRqdXN0PSJzcGFjaW5nIiB0ZXh0TGVuZ3RoPSIxMTQiIHg9IjI5MiIgeT0iMjAzLjczNDQiPm1pY3Jvc2VydmljZW5hbWU8L3RleHQ+PC9nPjwhLS1jbHVzdGVyIGRldi0tPjxnIGlkPSJjbHVzdGVyX2RldiI+PHBhdGggZD0iTTMxNC41LDIyOS41IEwzMzYuNSwyMjkuNSBBMy43NSwzLjc1IDAgMCAxIDMzOSwyMzIgTDM0NiwyNTAuNDg0NCBMMTA0My41LDI1MC40ODQ0IEEyLjUsMi41IDAgMCAxIDEwNDYsMjUyLjk4NDQgTDEwNDYsNTY0IEEyLjUsMi41IDAgMCAxIDEwNDMuNSw1NjYuNSBMMzE0LjUsNTY2LjUgQTIuNSwyLjUgMCAwIDEgMzEyLDU2NCBMMzEyLDIzMiBBMi41LDIuNSAwIDAgMSAzMTQuNSwyMjkuNSAiIGZpbGw9Im5vbmUiIHN0eWxlPSJzdHJva2U6IzAwMDAwMDtzdHJva2Utd2lkdGg6MS41OyIvPjxsaW5lIHN0eWxlPSJzdHJva2U6IzAwMDAwMDtzdHJva2Utd2lkdGg6MS41OyIgeDE9IjMxMiIgeDI9IjM0NiIgeTE9IjI1MC40ODQ0IiB5Mj0iMjUwLjQ4NDQiLz48dGV4dCBmaWxsPSIjMDAwMDAwIiBmb250LWZhbWlseT0ic2Fucy1zZXJpZiIgZm9udC1zaXplPSIxNCIgZm9udC13ZWlnaHQ9ImJvbGQiIGxlbmd0aEFkanVzdD0ic3BhY2luZyIgdGV4dExlbmd0aD0iMjEiIHg9IjMxNiIgeT0iMjQ0LjczNDQiPmRldjwvdGV4dD48L2c+PCEtLWNsdXN0ZXIgcHJvY2Vzcy0tPjxnIGlkPSJjbHVzdGVyX3Byb2Nlc3MiPjxwYXRoIGQ9Ik0zMzguNSwyNzAuNSBMMzg4LjUsMjcwLjUgQTMuNzUsMy43NSAwIDAgMSAzOTEsMjczIEwzOTgsMjkxLjQ4NDQgTDEwMTkuNSwyOTEuNDg0NCBBMi41LDIuNSAwIDAgMSAxMDIyLDI5My45ODQ0IEwxMDIyLDU0MCBBMi41LDIuNSAwIDAgMSAxMDE5LjUsNTQyLjUgTDMzOC41LDU0Mi41IEEyLjUsMi41IDAgMCAxIDMzNiw1NDAgTDMzNiwyNzMgQTIuNSwyLjUgMCAwIDEgMzM4LjUsMjcwLjUgIiBmaWxsPSJub25lIiBzdHlsZT0ic3Ryb2tlOiMwMDAwMDA7c3Ryb2tlLXdpZHRoOjEuNTsiLz48bGluZSBzdHlsZT0ic3Ryb2tlOiMwMDAwMDA7c3Ryb2tlLXdpZHRoOjEuNTsiIHgxPSIzMzYiIHgyPSIzOTgiIHkxPSIyOTEuNDg0NCIgeTI9IjI5MS40ODQ0Ii8+PHRleHQgZmlsbD0iIzAwMDAwMCIgZm9udC1mYW1pbHk9InNhbnMtc2VyaWYiIGZvbnQtc2l6ZT0iMTQiIGZvbnQtd2VpZ2h0PSJib2xkIiBsZW5ndGhBZGp1c3Q9InNwYWNpbmciIHRleHRMZW5ndGg9IjQ5IiB4PSIzNDAiIHk9IjI4NS43MzQ0Ij5wcm9jZXNzPC90ZXh0PjwvZz48IS0tY2x1c3RlciBsb2dpYy0tPjxnIGlkPSJjbHVzdGVyX2xvZ2ljIj48cGF0aCBkPSJNMzYyLjUsMzExLjUgTDM5OC41LDMxMS41IEEzLjc1LDMuNzUgMCAwIDEgNDAxLDMxNCBMNDA4LDMzMi40ODQ0IEw5OTUuNSwzMzIuNDg0NCBBMi41LDIuNSAwIDAgMSA5OTgsMzM0Ljk4NDQgTDk5OCw1MTYgQTIuNSwyLjUgMCAwIDEgOTk1LjUsNTE4LjUgTDM2Mi41LDUxOC41IEEyLjUsMi41IDAgMCAxIDM2MCw1MTYgTDM2MCwzMTQgQTIuNSwyLjUgMCAwIDEgMzYyLjUsMzExLjUgIiBmaWxsPSJub25lIiBzdHlsZT0ic3Ryb2tlOiMwMDAwMDA7c3Ryb2tlLXdpZHRoOjEuNTsiLz48bGluZSBzdHlsZT0ic3Ryb2tlOiMwMDAwMDA7c3Ryb2tlLXdpZHRoOjEuNTsiIHgxPSIzNjAiIHgyPSI0MDgiIHkxPSIzMzIuNDg0NCIgeTI9IjMzMi40ODQ0Ii8+PHRleHQgZmlsbD0iIzAwMDAwMCIgZm9udC1mYW1pbHk9InNhbnMtc2VyaWYiIGZvbnQtc2l6ZT0iMTQiIGZvbnQtd2VpZ2h0PSJib2xkIiBsZW5ndGhBZGp1c3Q9InNwYWNpbmciIHRleHRMZW5ndGg9IjM1IiB4PSIzNjQiIHk9IjMyNi43MzQ0Ij5sb2dpYzwvdGV4dD48L2c+PCEtLWNsdXN0ZXIgY29udmVydC0tPjxnIGlkPSJjbHVzdGVyX2NvbnZlcnQiPjxwYXRoIGQ9Ik02MDguNSwzNTIuNSBMNjU4LjUsMzUyLjUgQTMuNzUsMy43NSAwIDAgMSA2NjEsMzU1IEw2NjgsMzczLjQ4NDQgTDk3MS41LDM3My40ODQ0IEEyLjUsMi41IDAgMCAxIDk3NCwzNzUuOTg0NCBMOTc0LDQ5MiBBMi41LDIuNSAwIDAgMSA5NzEuNSw0OTQuNSBMNjA4LjUsNDk0LjUgQTIuNSwyLjUgMCAwIDEgNjA2LDQ5MiBMNjA2LDM1NSBBMi41LDIuNSAwIDAgMSA2MDguNSwzNTIuNSAiIGZpbGw9Im5vbmUiIHN0eWxlPSJzdHJva2U6IzAwMDAwMDtzdHJva2Utd2lkdGg6MS41OyIvPjxsaW5lIHN0eWxlPSJzdHJva2U6IzAwMDAwMDtzdHJva2Utd2lkdGg6MS41OyIgeDE9IjYwNiIgeDI9IjY2OCIgeTE9IjM3My40ODQ0IiB5Mj0iMzczLjQ4NDQiLz48dGV4dCBmaWxsPSIjMDAwMDAwIiBmb250LWZhbWlseT0ic2Fucy1zZXJpZiIgZm9udC1zaXplPSIxNCIgZm9udC13ZWlnaHQ9ImJvbGQiIGxlbmd0aEFkanVzdD0ic3BhY2luZyIgdGV4dExlbmd0aD0iNDkiIHg9IjYxMCIgeT0iMzY3LjczNDQiPmNvbnZlcnQ8L3RleHQ+PC9nPjwhLS1jbHVzdGVyIGNvbnN0YW50LS0+PGcgaWQ9ImNsdXN0ZXJfY29uc3RhbnQiPjxwYXRoIGQ9Ik0zODYuNSwzNjAgTDQ0My41LDM2MCBBMy43NSwzLjc1IDAgMCAxIDQ0NiwzNjIuNSBMNDUzLDM4MC45ODQ0IEw1NzkuNSwzODAuOTg0NCBBMi41LDIuNSAwIDAgMSA1ODIsMzgzLjQ4NDQgTDU4Miw0ODQuNSBBMi41LDIuNSAwIDAgMSA1NzkuNSw0ODcgTDM4Ni41LDQ4NyBBMi41LDIuNSAwIDAgMSAzODQsNDg0LjUgTDM4NCwzNjIuNSBBMi41LDIuNSAwIDAgMSAzODYuNSwzNjAgIiBmaWxsPSJub25lIiBzdHlsZT0ic3Ryb2tlOiMwMDAwMDA7c3Ryb2tlLXdpZHRoOjEuNTsiLz48bGluZSBzdHlsZT0ic3Ryb2tlOiMwMDAwMDA7c3Ryb2tlLXdpZHRoOjEuNTsiIHgxPSIzODQiIHgyPSI0NTMiIHkxPSIzODAuOTg0NCIgeTI9IjM4MC45ODQ0Ii8+PHRleHQgZmlsbD0iIzAwMDAwMCIgZm9udC1mYW1pbHk9InNhbnMtc2VyaWYiIGZvbnQtc2l6ZT0iMTQiIGZvbnQtd2VpZ2h0PSJib2xkIiBsZW5ndGhBZGp1c3Q9InNwYWNpbmciIHRleHRMZW5ndGg9IjU2IiB4PSIzODgiIHk9IjM3NS4yMzQ0Ij5jb25zdGFudDwvdGV4dD48L2c+PCEtLWNsdXN0ZXIgdGVzdC0tPjxnIGlkPSJjbHVzdGVyX3Rlc3QiPjxwYXRoIGQ9Ik01Ni41LDMyNi41IEw4NS41LDMyNi41IEEzLjc1LDMuNzUgMCAwIDEgODgsMzI5IEw5NSwzNDcuNDg0NCBMMjM3LjUsMzQ3LjQ4NDQgQTIuNSwyLjUgMCAwIDEgMjQwLDM0OS45ODQ0IEwyNDAsNTAxIEEyLjUsMi41IDAgMCAxIDIzNy41LDUwMy41IEw1Ni41LDUwMy41IEEyLjUsMi41IDAgMCAxIDU0LDUwMSBMNTQsMzI5IEEyLjUsMi41IDAgMCAxIDU2LjUsMzI2LjUgIiBmaWxsPSJub25lIiBzdHlsZT0ic3Ryb2tlOiMwMDAwMDA7c3Ryb2tlLXdpZHRoOjEuNTsiLz48bGluZSBzdHlsZT0ic3Ryb2tlOiMwMDAwMDA7c3Ryb2tlLXdpZHRoOjEuNTsiIHgxPSI1NCIgeDI9Ijk1IiB5MT0iMzQ3LjQ4NDQiIHkyPSIzNDcuNDg0NCIvPjx0ZXh0IGZpbGw9IiMwMDAwMDAiIGZvbnQtZmFtaWx5PSJzYW5zLXNlcmlmIiBmb250LXNpemU9IjE0IiBmb250LXdlaWdodD0iYm9sZCIgbGVuZ3RoQWRqdXN0PSJzcGFjaW5nIiB0ZXh0TGVuZ3RoPSIyOCIgeD0iNTgiIHk9IjM0MS43MzQ0Ij50ZXN0PC90ZXh0PjwvZz48IS0tY2x1c3RlciBvbmUtLT48ZyBpZD0iY2x1c3Rlcl9vbmUiPjxwYXRoIGQ9Ik04MC41LDM2Ny41IEwxMDIuNSwzNjcuNSBBMy43NSwzLjc1IDAgMCAxIDEwNSwzNzAgTDExMiwzODguNDg0NCBMMjEzLjUsMzg4LjQ4NDQgQTIuNSwyLjUgMCAwIDEgMjE2LDM5MC45ODQ0IEwyMTYsNDc3IEEyLjUsMi41IDAgMCAxIDIxMy41LDQ3OS41IEw4MC41LDQ3OS41IEEyLjUsMi41IDAgMCAxIDc4LDQ3NyBMNzgsMzcwIEEyLjUsMi41IDAgMCAxIDgwLjUsMzY3LjUgIiBmaWxsPSJub25lIiBzdHlsZT0ic3Ryb2tlOiMwMDAwMDA7c3Ryb2tlLXdpZHRoOjEuNTsiLz48bGluZSBzdHlsZT0ic3Ryb2tlOiMwMDAwMDA7c3Ryb2tlLXdpZHRoOjEuNTsiIHgxPSI3OCIgeDI9IjExMiIgeTE9IjM4OC40ODQ0IiB5Mj0iMzg4LjQ4NDQiLz48dGV4dCBmaWxsPSIjMDAwMDAwIiBmb250LWZhbWlseT0ic2Fucy1zZXJpZiIgZm9udC1zaXplPSIxNCIgZm9udC13ZWlnaHQ9ImJvbGQiIGxlbmd0aEFkanVzdD0ic3BhY2luZyIgdGV4dExlbmd0aD0iMjEiIHg9IjgyIiB5PSIzODIuNzM0NCI+b25lPC90ZXh0PjwvZz48IS0tY2xhc3MgQXBwbGljYXRpb24tLT48ZyBpZD0iZWxlbV9BcHBsaWNhdGlvbiI+PHJlY3QgY29kZUxpbmU9IjEiIGZpbGw9IiNGMUYxRjEiIGhlaWdodD0iNjIuOTg0NCIgaWQ9IkFwcGxpY2F0aW9uIiByeD0iMi41IiByeT0iMi41IiBzdHlsZT0ic3Ryb2tlOiMxODE4MTg7c3Ryb2tlLXdpZHRoOjAuNTsiIHdpZHRoPSIxNjIiIHg9IjMyMjEiIHk9IjQwMC41Ii8+PGVsbGlwc2UgY3g9IjMyNTkuODUiIGN5PSI0MTYuNSIgZmlsbD0iI0FERDFCMiIgcng9IjExIiByeT0iMTEiIHN0eWxlPSJzdHJva2U6IzE4MTgxODtzdHJva2Utd2lkdGg6MS4wOyIvPjxwYXRoIGQ9Ik0zMjU3LjQ3NSw0MjAuNzUgTDMyNTcuNDc1LDQyMi41IEwzMjYyLjQxMjUsNDIyLjUgTDMyNjIuNDEyNSw0MjAuNzUgTDMyNTcuNDc1LDQyMC43NSBaIE0zMjU4LjE2MjUsNDIxLjQzNzUgUTMyNTguMTYyNSw0MjEuNDM3NSAzMjU4LjE2MjUsNDEyLjI1IEwzMjU2LjQxMjUsNDEyLjI1IFEzMjU2LjQxMjUsNDEyLjI1IDMyNTYuNDEyNSw0MjEuNDM3NSBMMzI1OC4xNjI1LDQyMS40Mzc1IFogTTMyNjEuNzI1LDQyMS40Mzc1IEwzMjYzLjQ3NSw0MjEuNDM3NSBRMzI2My40NzUsNDIxLjQzNzUgMzI2My40NzUsNDE4LjYyNSBMMzI2MS43MjUsNDE4LjYyNSBRMzI2MS43MjUsNDE4LjYyNSAzMjYxLjcyNSw0MjEuNDM3NSBaIE0zMjYxLjcyNSw0MTIuMjUgUTMyNjEuNzI1LDQxMi4yNSAzMjYxLjcyNSw0MTUuMDYyNSBMMzI2My40NzUsNDE1LjA2MjUgUTMyNjMuNDc1LDQxNS4wNjI1IDMyNjMuNDc1LDQxMi4yNSBMMzI2MS43MjUsNDEyLjI1IFogTTMyNTcuNDc1LDQxMi45Mzc1IEwzMjYyLjQxMjUsNDEyLjkzNzUgTDMyNjIuNDEyNSw0MTEuMTg3NSBMMzI1Ny40NzUsNDExLjE4NzUgTDMyNTcuNDc1LDQxMi45Mzc1IFogIiBmaWxsPSIjMDAwMDAwIi8+PHRleHQgZmlsbD0iIzAwMDAwMCIgZm9udC1mYW1pbHk9InNhbnMtc2VyaWYiIGZvbnQtc2l6ZT0iMTQiIGxlbmd0aEFkanVzdD0ic3BhY2luZyIgdGV4dExlbmd0aD0iNzciIHg9IjMyNzkuMTUiIHk9IjQyMi4yNDIyIj5BcHBsaWNhdGlvbjwvdGV4dD48bGluZSBzdHlsZT0ic3Ryb2tlOiMxODE4MTg7c3Ryb2tlLXdpZHRoOjAuNTsiIHgxPSIzMjIyIiB4Mj0iMzM4MiIgeTE9IjQzMi41IiB5Mj0iNDMyLjUiLz48bGluZSBzdHlsZT0ic3Ryb2tlOiMxODE4MTg7c3Ryb2tlLXdpZHRoOjAuNTsiIHgxPSIzMjIyIiB4Mj0iMzM4MiIgeTE9IjQ0MC41IiB5Mj0iNDQwLjUiLz48ZWxsaXBzZSBjeD0iMzIzMiIgY3k9IjQ1My40OTIyIiBmaWxsPSIjODRCRTg0IiByeD0iMyIgcnk9IjMiIHN0eWxlPSJzdHJva2U6IzAzODA0ODtzdHJva2Utd2lkdGg6MS4wOyIvPjx0ZXh0IGZpbGw9IiMwMDAwMDAiIGZvbnQtZmFtaWx5PSJzYW5zLXNlcmlmIiBmb250LXNpemU9IjE0IiBsZW5ndGhBZGp1c3Q9InNwYWNpbmciIHRleHQtZGVjb3JhdGlvbj0idW5kZXJsaW5lIiB0ZXh0TGVuZ3RoPSIxMzYiIHg9IjMyNDEiIHk9IjQ1Ny43MzQ0Ij52b2lkIG1haW4oU3RyaW5nW10pPC90ZXh0PjwvZz48IS0tY2xhc3MgU3dhZ2dlckNvbmZpZy0tPjxnIGlkPSJlbGVtX1N3YWdnZXJDb25maWciPjxyZWN0IGNvZGVMaW5lPSIzNiIgZmlsbD0iI0YxRjFGMSIgaGVpZ2h0PSIxMDcuOTM3NSIgaWQ9IlN3YWdnZXJDb25maWciIHJ4PSIyLjUiIHJ5PSIyLjUiIHN0eWxlPSJzdHJva2U6IzE4MTgxODtzdHJva2Utd2lkdGg6MC41OyIgd2lkdGg9IjQ1NSIgeD0iMzQxOC41IiB5PSIzNzgiLz48ZWxsaXBzZSBjeD0iMzU5NS43NSIgY3k9IjM5NCIgZmlsbD0iI0FERDFCMiIgcng9IjExIiByeT0iMTEiIHN0eWxlPSJzdHJva2U6IzE4MTgxODtzdHJva2Utd2lkdGg6MS4wOyIvPjxwYXRoIGQ9Ik0zNTkzLjM3NSwzOTguMjUgTDM1OTMuMzc1LDQwMCBMMzU5OC4zMTI1LDQwMCBMMzU5OC4zMTI1LDM5OC4yNSBMMzU5My4zNzUsMzk4LjI1IFogTTM1OTQuMDYyNSwzOTguOTM3NSBRMzU5NC4wNjI1LDM5OC45Mzc1IDM1OTQuMDYyNSwzODkuNzUgTDM1OTIuMzEyNSwzODkuNzUgUTM1OTIuMzEyNSwzODkuNzUgMzU5Mi4zMTI1LDM5OC45Mzc1IEwzNTk0LjA2MjUsMzk4LjkzNzUgWiBNMzU5Ny42MjUsMzk4LjkzNzUgTDM1OTkuMzc1LDM5OC45Mzc1IFEzNTk5LjM3NSwzOTguOTM3NSAzNTk5LjM3NSwzOTYuMTI1IEwzNTk3LjYyNSwzOTYuMTI1IFEzNTk3LjYyNSwzOTYuMTI1IDM1OTcuNjI1LDM5OC45Mzc1IFogTTM1OTcuNjI1LDM4OS43NSBRMzU5Ny42MjUsMzg5Ljc1IDM1OTcuNjI1LDM5Mi41NjI1IEwzNTk5LjM3NSwzOTIuNTYyNSBRMzU5OS4zNzUsMzkyLjU2MjUgMzU5OS4zNzUsMzg5Ljc1IEwzNTk3LjYyNSwzODkuNzUgWiBNMzU5My4zNzUsMzkwLjQzNzUgTDM1OTguMzEyNSwzOTAuNDM3NSBMMzU5OC4zMTI1LDM4OC42ODc1IEwzNTkzLjM3NSwzODguNjg3NSBMMzU5My4zNzUsMzkwLjQzNzUgWiAiIGZpbGw9IiMwMDAwMDAiLz48dGV4dCBmaWxsPSIjMDAwMDAwIiBmb250LWZhbWlseT0ic2Fucy1zZXJpZiIgZm9udC1zaXplPSIxNCIgbGVuZ3RoQWRqdXN0PSJzcGFjaW5nIiB0ZXh0TGVuZ3RoPSI5MiIgeD0iMzYxNi4yNSIgeT0iMzk5Ljc0MjIiPlN3YWdnZXJDb25maWc8L3RleHQ+PGxpbmUgc3R5bGU9InN0cm9rZTojMTgxODE4O3N0cm9rZS13aWR0aDowLjU7IiB4MT0iMzQxOS41IiB4Mj0iMzg3Mi41IiB5MT0iNDEwIiB5Mj0iNDEwIi8+PHJlY3QgZmlsbD0ibm9uZSIgaGVpZ2h0PSI2IiBzdHlsZT0ic3Ryb2tlOiNDODI5MzA7c3Ryb2tlLXdpZHRoOjEuMDsiIHdpZHRoPSI2IiB4PSIzNDI2LjUiIHk9IjQxOS45OTIyIi8+PHRleHQgZmlsbD0iIzAwMDAwMCIgZm9udC1mYW1pbHk9InNhbnMtc2VyaWYiIGZvbnQtc2l6ZT0iMTQiIGxlbmd0aEFkanVzdD0ic3BhY2luZyIgdGV4dExlbmd0aD0iOTkiIHg9IjM0MzguNSIgeT0iNDI3LjIzNDQiPlN0cmluZyBhcHBOYW1lPC90ZXh0PjxsaW5lIHN0eWxlPSJzdHJva2U6IzE4MTgxODtzdHJva2Utd2lkdGg6MC41OyIgeDE9IjM0MTkuNSIgeDI9IjM4NzIuNSIgeTE9IjQzMi45ODQ0IiB5Mj0iNDMyLjk4NDQiLz48ZWxsaXBzZSBjeD0iMzQyOS41IiBjeT0iNDQ1Ljk3NjYiIGZpbGw9IiM4NEJFODQiIHJ4PSIzIiByeT0iMyIgc3R5bGU9InN0cm9rZTojMDM4MDQ4O3N0cm9rZS13aWR0aDoxLjA7Ii8+PHRleHQgZmlsbD0iIzAwMDAwMCIgZm9udC1mYW1pbHk9InNhbnMtc2VyaWYiIGZvbnQtc2l6ZT0iMTQiIGxlbmd0aEFkanVzdD0ic3BhY2luZyIgdGV4dExlbmd0aD0iODYiIHg9IjM0MzguNSIgeT0iNDUwLjIxODgiPkRvY2tldCBhcGkoKTwvdGV4dD48cmVjdCBmaWxsPSIjRjI0RDVDIiBoZWlnaHQ9IjYiIHN0eWxlPSJzdHJva2U6I0M4MjkzMDtzdHJva2Utd2lkdGg6MS4wOyIgd2lkdGg9IjYiIHg9IjM0MjYuNSIgeT0iNDU3Ljk2MDkiLz48dGV4dCBmaWxsPSIjMDAwMDAwIiBmb250LWZhbWlseT0ic2Fucy1zZXJpZiIgZm9udC1zaXplPSIxNCIgbGVuZ3RoQWRqdXN0PSJzcGFjaW5nIiB0ZXh0TGVuZ3RoPSIxMjEiIHg9IjM0MzguNSIgeT0iNDY1LjIwMzEiPkFwaUluZm8gYXBpSW5mbygpPC90ZXh0PjxlbGxpcHNlIGN4PSIzNDI5LjUiIGN5PSI0NzUuOTQ1MyIgZmlsbD0iIzg0QkU4NCIgcng9IjMiIHJ5PSIzIiBzdHlsZT0ic3Ryb2tlOiMwMzgwNDg7c3Ryb2tlLXdpZHRoOjEuMDsiLz48dGV4dCBmaWxsPSIjMDAwMDAwIiBmb250LWZhbWlseT0ic2Fucy1zZXJpZiIgZm9udC1zaXplPSIxNCIgbGVuZ3RoQWRqdXN0PSJzcGFjaW5nIiB0ZXh0LWRlY29yYXRpb249InVuZGVybGluZSIgdGV4dExlbmd0aD0iNDI5IiB4PSIzNDM4LjUiIHk9IjQ4MC4xODc1Ij5CZWFuUG9zdFByb2Nlc3NvciBzcHJpbmdmb3hIYW5kbGVyUHJvdmlkZXJCZWFuUG9zdFByb2Nlc3NvcigpPC90ZXh0PjwvZz48IS0tY2xhc3MgRGVtb0FNZXRob2RQcm9jZXNzLS0+PGcgaWQ9ImVsZW1fRGVtb0FNZXRob2RQcm9jZXNzIj48cmVjdCBjb2RlTGluZT0iNCIgZmlsbD0iI0YxRjFGMSIgaGVpZ2h0PSI0OCIgaWQ9IkRlbW9BTWV0aG9kUHJvY2VzcyIgcng9IjIuNSIgcnk9IjIuNSIgc3R5bGU9InN0cm9rZTojMTgxODE4O3N0cm9rZS13aWR0aDowLjU7IiB3aWR0aD0iMTU5IiB4PSIyODE0LjUiIHk9IjQwOCIvPjxlbGxpcHNlIGN4PSIyODI5LjUiIGN5PSI0MjQiIGZpbGw9IiNBREQxQjIiIHJ4PSIxMSIgcnk9IjExIiBzdHlsZT0ic3Ryb2tlOiMxODE4MTg7c3Ryb2tlLXdpZHRoOjEuMDsiLz48cGF0aCBkPSJNMjgyNy4xMjUsNDI4LjI1IEwyODI3LjEyNSw0MzAgTDI4MzIuMDYyNSw0MzAgTDI4MzIuMDYyNSw0MjguMjUgTDI4MjcuMTI1LDQyOC4yNSBaIE0yODI3LjgxMjUsNDI4LjkzNzUgUTI4MjcuODEyNSw0MjguOTM3NSAyODI3LjgxMjUsNDE5Ljc1IEwyODI2LjA2MjUsNDE5Ljc1IFEyODI2LjA2MjUsNDE5Ljc1IDI4MjYuMDYyNSw0MjguOTM3NSBMMjgyNy44MTI1LDQyOC45Mzc1IFogTTI4MzEuMzc1LDQyOC45Mzc1IEwyODMzLjEyNSw0MjguOTM3NSBRMjgzMy4xMjUsNDI4LjkzNzUgMjgzMy4xMjUsNDI2LjEyNSBMMjgzMS4zNzUsNDI2LjEyNSBRMjgzMS4zNzUsNDI2LjEyNSAyODMxLjM3NSw0MjguOTM3NSBaIE0yODMxLjM3NSw0MTkuNzUgUTI4MzEuMzc1LDQxOS43NSAyODMxLjM3NSw0MjIuNTYyNSBMMjgzMy4xMjUsNDIyLjU2MjUgUTI4MzMuMTI1LDQyMi41NjI1IDI4MzMuMTI1LDQxOS43NSBMMjgzMS4zNzUsNDE5Ljc1IFogTTI4MjcuMTI1LDQyMC40Mzc1IEwyODMyLjA2MjUsNDIwLjQzNzUgTDI4MzIuMDYyNSw0MTguNjg3NSBMMjgyNy4xMjUsNDE4LjY4NzUgTDI4MjcuMTI1LDQyMC40Mzc1IFogIiBmaWxsPSIjMDAwMDAwIi8+PHRleHQgZmlsbD0iIzAwMDAwMCIgZm9udC1mYW1pbHk9InNhbnMtc2VyaWYiIGZvbnQtc2l6ZT0iMTQiIGxlbmd0aEFkanVzdD0ic3BhY2luZyIgdGV4dExlbmd0aD0iMTI3IiB4PSIyODQzLjUiIHk9IjQyOS43NDIyIj5EZW1vQU1ldGhvZFByb2Nlc3M8L3RleHQ+PGxpbmUgc3R5bGU9InN0cm9rZTojMTgxODE4O3N0cm9rZS13aWR0aDowLjU7IiB4MT0iMjgxNS41IiB4Mj0iMjk3Mi41IiB5MT0iNDQwIiB5Mj0iNDQwIi8+PGxpbmUgc3R5bGU9InN0cm9rZTojMTgxODE4O3N0cm9rZS13aWR0aDowLjU7IiB4MT0iMjgxNS41IiB4Mj0iMjk3Mi41IiB5MT0iNDQ4IiB5Mj0iNDQ4Ii8+PC9nPjwhLS1jbGFzcyBEZW1vQVRhc2tQcm9jZXNzLS0+PGcgaWQ9ImVsZW1fRGVtb0FUYXNrUHJvY2VzcyI+PHJlY3QgY29kZUxpbmU9IjgiIGZpbGw9IiNGMUYxRjEiIGhlaWdodD0iNDgiIGlkPSJEZW1vQVRhc2tQcm9jZXNzIiByeD0iMi41IiByeT0iMi41IiBzdHlsZT0ic3Ryb2tlOiMxODE4MTg7c3Ryb2tlLXdpZHRoOjAuNTsiIHdpZHRoPSIxNDUiIHg9IjI2MTMuNSIgeT0iNDA4Ii8+PGVsbGlwc2UgY3g9IjI2MjguNSIgY3k9IjQyNCIgZmlsbD0iI0FERDFCMiIgcng9IjExIiByeT0iMTEiIHN0eWxlPSJzdHJva2U6IzE4MTgxODtzdHJva2Utd2lkdGg6MS4wOyIvPjxwYXRoIGQ9Ik0yNjI2LjEyNSw0MjguMjUgTDI2MjYuMTI1LDQzMCBMMjYzMS4wNjI1LDQzMCBMMjYzMS4wNjI1LDQyOC4yNSBMMjYyNi4xMjUsNDI4LjI1IFogTTI2MjYuODEyNSw0MjguOTM3NSBRMjYyNi44MTI1LDQyOC45Mzc1IDI2MjYuODEyNSw0MTkuNzUgTDI2MjUuMDYyNSw0MTkuNzUgUTI2MjUuMDYyNSw0MTkuNzUgMjYyNS4wNjI1LDQyOC45Mzc1IEwyNjI2LjgxMjUsNDI4LjkzNzUgWiBNMjYzMC4zNzUsNDI4LjkzNzUgTDI2MzIuMTI1LDQyOC45Mzc1IFEyNjMyLjEyNSw0MjguOTM3NSAyNjMyLjEyNSw0MjYuMTI1IEwyNjMwLjM3NSw0MjYuMTI1IFEyNjMwLjM3NSw0MjYuMTI1IDI2MzAuMzc1LDQyOC45Mzc1IFogTTI2MzAuMzc1LDQxOS43NSBRMjYzMC4zNzUsNDE5Ljc1IDI2MzAuMzc1LDQyMi41NjI1IEwyNjMyLjEyNSw0MjIuNTYyNSBRMjYzMi4xMjUsNDIyLjU2MjUgMjYzMi4xMjUsNDE5Ljc1IEwyNjMwLjM3NSw0MTkuNzUgWiBNMjYyNi4xMjUsNDIwLjQzNzUgTDI2MzEuMDYyNSw0MjAuNDM3NSBMMjYzMS4wNjI1LDQxOC42ODc1IEwyNjI2LjEyNSw0MTguNjg3NSBMMjYyNi4xMjUsNDIwLjQzNzUgWiAiIGZpbGw9IiMwMDAwMDAiLz48dGV4dCBmaWxsPSIjMDAwMDAwIiBmb250LWZhbWlseT0ic2Fucy1zZXJpZiIgZm9udC1zaXplPSIxNCIgbGVuZ3RoQWRqdXN0PSJzcGFjaW5nIiB0ZXh0TGVuZ3RoPSIxMTMiIHg9IjI2NDIuNSIgeT0iNDI5Ljc0MjIiPkRlbW9BVGFza1Byb2Nlc3M8L3RleHQ+PGxpbmUgc3R5bGU9InN0cm9rZTojMTgxODE4O3N0cm9rZS13aWR0aDowLjU7IiB4MT0iMjYxNC41IiB4Mj0iMjc1Ny41IiB5MT0iNDQwIiB5Mj0iNDQwIi8+PGxpbmUgc3R5bGU9InN0cm9rZTojMTgxODE4O3N0cm9rZS13aWR0aDowLjU7IiB4MT0iMjYxNC41IiB4Mj0iMjc1Ny41IiB5MT0iNDQ4IiB5Mj0iNDQ4Ii8+PC9nPjwhLS1jbGFzcyBEZW1vTXFDb25zdW1lclByb2Nlc3MtLT48ZyBpZD0iZWxlbV9EZW1vTXFDb25zdW1lclByb2Nlc3MiPjxyZWN0IGNvZGVMaW5lPSIxMCIgZmlsbD0iI0YxRjFGMSIgaGVpZ2h0PSI0OCIgaWQ9IkRlbW9NcUNvbnN1bWVyUHJvY2VzcyIgcng9IjIuNSIgcnk9IjIuNSIgc3R5bGU9InN0cm9rZTojMTgxODE4O3N0cm9rZS13aWR0aDowLjU7IiB3aWR0aD0iMTgxIiB4PSIyMzc1LjUiIHk9IjQwOCIvPjxlbGxpcHNlIGN4PSIyMzkwLjUiIGN5PSI0MjQiIGZpbGw9IiNBREQxQjIiIHJ4PSIxMSIgcnk9IjExIiBzdHlsZT0ic3Ryb2tlOiMxODE4MTg7c3Ryb2tlLXdpZHRoOjEuMDsiLz48cGF0aCBkPSJNMjM4OC4xMjUsNDI4LjI1IEwyMzg4LjEyNSw0MzAgTDIzOTMuMDYyNSw0MzAgTDIzOTMuMDYyNSw0MjguMjUgTDIzODguMTI1LDQyOC4yNSBaIE0yMzg4LjgxMjUsNDI4LjkzNzUgUTIzODguODEyNSw0MjguOTM3NSAyMzg4LjgxMjUsNDE5Ljc1IEwyMzg3LjA2MjUsNDE5Ljc1IFEyMzg3LjA2MjUsNDE5Ljc1IDIzODcuMDYyNSw0MjguOTM3NSBMMjM4OC44MTI1LDQyOC45Mzc1IFogTTIzOTIuMzc1LDQyOC45Mzc1IEwyMzk0LjEyNSw0MjguOTM3NSBRMjM5NC4xMjUsNDI4LjkzNzUgMjM5NC4xMjUsNDI2LjEyNSBMMjM5Mi4zNzUsNDI2LjEyNSBRMjM5Mi4zNzUsNDI2LjEyNSAyMzkyLjM3NSw0MjguOTM3NSBaIE0yMzkyLjM3NSw0MTkuNzUgUTIzOTIuMzc1LDQxOS43NSAyMzkyLjM3NSw0MjIuNTYyNSBMMjM5NC4xMjUsNDIyLjU2MjUgUTIzOTQuMTI1LDQyMi41NjI1IDIzOTQuMTI1LDQxOS43NSBMMjM5Mi4zNzUsNDE5Ljc1IFogTTIzODguMTI1LDQyMC40Mzc1IEwyMzkzLjA2MjUsNDIwLjQzNzUgTDIzOTMuMDYyNSw0MTguNjg3NSBMMjM4OC4xMjUsNDE4LjY4NzUgTDIzODguMTI1LDQyMC40Mzc1IFogIiBmaWxsPSIjMDAwMDAwIi8+PHRleHQgZmlsbD0iIzAwMDAwMCIgZm9udC1mYW1pbHk9InNhbnMtc2VyaWYiIGZvbnQtc2l6ZT0iMTQiIGxlbmd0aEFkanVzdD0ic3BhY2luZyIgdGV4dExlbmd0aD0iMTQ5IiB4PSIyNDA0LjUiIHk9IjQyOS43NDIyIj5EZW1vTXFDb25zdW1lclByb2Nlc3M8L3RleHQ+PGxpbmUgc3R5bGU9InN0cm9rZTojMTgxODE4O3N0cm9rZS13aWR0aDowLjU7IiB4MT0iMjM3Ni41IiB4Mj0iMjU1NS41IiB5MT0iNDQwIiB5Mj0iNDQwIi8+PGxpbmUgc3R5bGU9InN0cm9rZTojMTgxODE4O3N0cm9rZS13aWR0aDowLjU7IiB4MT0iMjM3Ni41IiB4Mj0iMjU1NS41IiB5MT0iNDQ4IiB5Mj0iNDQ4Ii8+PC9nPjwhLS1jbGFzcyBBQVBJUHJvY2Vzcy0tPjxnIGlkPSJlbGVtX0FBUElQcm9jZXNzIj48cmVjdCBjb2RlTGluZT0iMzQiIGZpbGw9IiNGMUYxRjEiIGhlaWdodD0iNDgiIGlkPSJBQVBJUHJvY2VzcyIgcng9IjIuNSIgcnk9IjIuNSIgc3R5bGU9InN0cm9rZTojMTgxODE4O3N0cm9rZS13aWR0aDowLjU7IiB3aWR0aD0iMTA5IiB4PSIyMjA5LjUiIHk9IjQwOCIvPjxlbGxpcHNlIGN4PSIyMjI0LjUiIGN5PSI0MjQiIGZpbGw9IiNBREQxQjIiIHJ4PSIxMSIgcnk9IjExIiBzdHlsZT0ic3Ryb2tlOiMxODE4MTg7c3Ryb2tlLXdpZHRoOjEuMDsiLz48cGF0aCBkPSJNMjIyMi4xMjUsNDI4LjI1IEwyMjIyLjEyNSw0MzAgTDIyMjcuMDYyNSw0MzAgTDIyMjcuMDYyNSw0MjguMjUgTDIyMjIuMTI1LDQyOC4yNSBaIE0yMjIyLjgxMjUsNDI4LjkzNzUgUTIyMjIuODEyNSw0MjguOTM3NSAyMjIyLjgxMjUsNDE5Ljc1IEwyMjIxLjA2MjUsNDE5Ljc1IFEyMjIxLjA2MjUsNDE5Ljc1IDIyMjEuMDYyNSw0MjguOTM3NSBMMjIyMi44MTI1LDQyOC45Mzc1IFogTTIyMjYuMzc1LDQyOC45Mzc1IEwyMjI4LjEyNSw0MjguOTM3NSBRMjIyOC4xMjUsNDI4LjkzNzUgMjIyOC4xMjUsNDI2LjEyNSBMMjIyNi4zNzUsNDI2LjEyNSBRMjIyNi4zNzUsNDI2LjEyNSAyMjI2LjM3NSw0MjguOTM3NSBaIE0yMjI2LjM3NSw0MTkuNzUgUTIyMjYuMzc1LDQxOS43NSAyMjI2LjM3NSw0MjIuNTYyNSBMMjIyOC4xMjUsNDIyLjU2MjUgUTIyMjguMTI1LDQyMi41NjI1IDIyMjguMTI1LDQxOS43NSBMMjIyNi4zNzUsNDE5Ljc1IFogTTIyMjIuMTI1LDQyMC40Mzc1IEwyMjI3LjA2MjUsNDIwLjQzNzUgTDIyMjcuMDYyNSw0MTguNjg3NSBMMjIyMi4xMjUsNDE4LjY4NzUgTDIyMjIuMTI1LDQyMC40Mzc1IFogIiBmaWxsPSIjMDAwMDAwIi8+PHRleHQgZmlsbD0iIzAwMDAwMCIgZm9udC1mYW1pbHk9InNhbnMtc2VyaWYiIGZvbnQtc2l6ZT0iMTQiIGxlbmd0aEFkanVzdD0ic3BhY2luZyIgdGV4dExlbmd0aD0iNzciIHg9IjIyMzguNSIgeT0iNDI5Ljc0MjIiPkFBUElQcm9jZXNzPC90ZXh0PjxsaW5lIHN0eWxlPSJzdHJva2U6IzE4MTgxODtzdHJva2Utd2lkdGg6MC41OyIgeDE9IjIyMTAuNSIgeDI9IjIzMTcuNSIgeTE9IjQ0MCIgeTI9IjQ0MCIvPjxsaW5lIHN0eWxlPSJzdHJva2U6IzE4MTgxODtzdHJva2Utd2lkdGg6MC41OyIgeDE9IjIyMTAuNSIgeDI9IjIzMTcuNSIgeTE9IjQ0OCIgeTI9IjQ0OCIvPjwvZz48IS0tY2xhc3MgRGVtb0FBUElJbXBsLS0+PGcgaWQ9ImVsZW1fRGVtb0FBUElJbXBsIj48cmVjdCBjb2RlTGluZT0iNiIgZmlsbD0iI0YxRjFGMSIgaGVpZ2h0PSI0OCIgaWQ9IkRlbW9BQVBJSW1wbCIgcng9IjIuNSIgcnk9IjIuNSIgc3R5bGU9InN0cm9rZTojMTgxODE4O3N0cm9rZS13aWR0aDowLjU7IiB3aWR0aD0iMTE4IiB4PSIxOTYzIiB5PSI0MDgiLz48ZWxsaXBzZSBjeD0iMTk3OCIgY3k9IjQyNCIgZmlsbD0iI0FERDFCMiIgcng9IjExIiByeT0iMTEiIHN0eWxlPSJzdHJva2U6IzE4MTgxODtzdHJva2Utd2lkdGg6MS4wOyIvPjxwYXRoIGQ9Ik0xOTc1LjYyNSw0MjguMjUgTDE5NzUuNjI1LDQzMCBMMTk4MC41NjI1LDQzMCBMMTk4MC41NjI1LDQyOC4yNSBMMTk3NS42MjUsNDI4LjI1IFogTTE5NzYuMzEyNSw0MjguOTM3NSBRMTk3Ni4zMTI1LDQyOC45Mzc1IDE5NzYuMzEyNSw0MTkuNzUgTDE5NzQuNTYyNSw0MTkuNzUgUTE5NzQuNTYyNSw0MTkuNzUgMTk3NC41NjI1LDQyOC45Mzc1IEwxOTc2LjMxMjUsNDI4LjkzNzUgWiBNMTk3OS44NzUsNDI4LjkzNzUgTDE5ODEuNjI1LDQyOC45Mzc1IFExOTgxLjYyNSw0MjguOTM3NSAxOTgxLjYyNSw0MjYuMTI1IEwxOTc5Ljg3NSw0MjYuMTI1IFExOTc5Ljg3NSw0MjYuMTI1IDE5NzkuODc1LDQyOC45Mzc1IFogTTE5NzkuODc1LDQxOS43NSBRMTk3OS44NzUsNDE5Ljc1IDE5NzkuODc1LDQyMi41NjI1IEwxOTgxLjYyNSw0MjIuNTYyNSBRMTk4MS42MjUsNDIyLjU2MjUgMTk4MS42MjUsNDE5Ljc1IEwxOTc5Ljg3NSw0MTkuNzUgWiBNMTk3NS42MjUsNDIwLjQzNzUgTDE5ODAuNTYyNSw0MjAuNDM3NSBMMTk4MC41NjI1LDQxOC42ODc1IEwxOTc1LjYyNSw0MTguNjg3NSBMMTk3NS42MjUsNDIwLjQzNzUgWiAiIGZpbGw9IiMwMDAwMDAiLz48dGV4dCBmaWxsPSIjMDAwMDAwIiBmb250LWZhbWlseT0ic2Fucy1zZXJpZiIgZm9udC1zaXplPSIxNCIgbGVuZ3RoQWRqdXN0PSJzcGFjaW5nIiB0ZXh0TGVuZ3RoPSI4NiIgeD0iMTk5MiIgeT0iNDI5Ljc0MjIiPkRlbW9BQVBJSW1wbDwvdGV4dD48bGluZSBzdHlsZT0ic3Ryb2tlOiMxODE4MTg7c3Ryb2tlLXdpZHRoOjAuNTsiIHgxPSIxOTY0IiB4Mj0iMjA4MCIgeTE9IjQ0MCIgeTI9IjQ0MCIvPjxsaW5lIHN0eWxlPSJzdHJva2U6IzE4MTgxODtzdHJva2Utd2lkdGg6MC41OyIgeDE9IjE5NjQiIHgyPSIyMDgwIiB5MT0iNDQ4IiB5Mj0iNDQ4Ii8+PC9nPjwhLS1jbGFzcyBEZW1vQUFQSVJlc3AtLT48ZyBpZD0iZWxlbV9EZW1vQUFQSVJlc3AiPjxyZWN0IGNvZGVMaW5lPSIxMiIgZmlsbD0iI0YxRjFGMSIgaGVpZ2h0PSI0OCIgaWQ9IkRlbW9BQVBJUmVzcCIgcng9IjIuNSIgcnk9IjIuNSIgc3R5bGU9InN0cm9rZTojMTgxODE4O3N0cm9rZS13aWR0aDowLjU7IiB3aWR0aD0iMTE3IiB4PSIxNjQyLjUiIHk9IjQwOCIvPjxlbGxpcHNlIGN4PSIxNjU3LjUiIGN5PSI0MjQiIGZpbGw9IiNBREQxQjIiIHJ4PSIxMSIgcnk9IjExIiBzdHlsZT0ic3Ryb2tlOiMxODE4MTg7c3Ryb2tlLXdpZHRoOjEuMDsiLz48cGF0aCBkPSJNMTY1NS4xMjUsNDI4LjI1IEwxNjU1LjEyNSw0MzAgTDE2NjAuMDYyNSw0MzAgTDE2NjAuMDYyNSw0MjguMjUgTDE2NTUuMTI1LDQyOC4yNSBaIE0xNjU1LjgxMjUsNDI4LjkzNzUgUTE2NTUuODEyNSw0MjguOTM3NSAxNjU1LjgxMjUsNDE5Ljc1IEwxNjU0LjA2MjUsNDE5Ljc1IFExNjU0LjA2MjUsNDE5Ljc1IDE2NTQuMDYyNSw0MjguOTM3NSBMMTY1NS44MTI1LDQyOC45Mzc1IFogTTE2NTkuMzc1LDQyOC45Mzc1IEwxNjYxLjEyNSw0MjguOTM3NSBRMTY2MS4xMjUsNDI4LjkzNzUgMTY2MS4xMjUsNDI2LjEyNSBMMTY1OS4zNzUsNDI2LjEyNSBRMTY1OS4zNzUsNDI2LjEyNSAxNjU5LjM3NSw0MjguOTM3NSBaIE0xNjU5LjM3NSw0MTkuNzUgUTE2NTkuMzc1LDQxOS43NSAxNjU5LjM3NSw0MjIuNTYyNSBMMTY2MS4xMjUsNDIyLjU2MjUgUTE2NjEuMTI1LDQyMi41NjI1IDE2NjEuMTI1LDQxOS43NSBMMTY1OS4zNzUsNDE5Ljc1IFogTTE2NTUuMTI1LDQyMC40Mzc1IEwxNjYwLjA2MjUsNDIwLjQzNzUgTDE2NjAuMDYyNSw0MTguNjg3NSBMMTY1NS4xMjUsNDE4LjY4NzUgTDE2NTUuMTI1LDQyMC40Mzc1IFogIiBmaWxsPSIjMDAwMDAwIi8+PHRleHQgZmlsbD0iIzAwMDAwMCIgZm9udC1mYW1pbHk9InNhbnMtc2VyaWYiIGZvbnQtc2l6ZT0iMTQiIGxlbmd0aEFkanVzdD0ic3BhY2luZyIgdGV4dExlbmd0aD0iODUiIHg9IjE2NzEuNSIgeT0iNDI5Ljc0MjIiPkRlbW9BQVBJUmVzcDwvdGV4dD48bGluZSBzdHlsZT0ic3Ryb2tlOiMxODE4MTg7c3Ryb2tlLXdpZHRoOjAuNTsiIHgxPSIxNjQzLjUiIHgyPSIxNzU4LjUiIHkxPSI0NDAiIHkyPSI0NDAiLz48bGluZSBzdHlsZT0ic3Ryb2tlOiMxODE4MTg7c3Ryb2tlLXdpZHRoOjAuNTsiIHgxPSIxNjQzLjUiIHgyPSIxNzU4LjUiIHkxPSI0NDgiIHkyPSI0NDgiLz48L2c+PCEtLWNsYXNzIERlbW9BQVBJLS0+PGcgaWQ9ImVsZW1fRGVtb0FBUEkiPjxyZWN0IGNvZGVMaW5lPSIxNCIgZmlsbD0iI0YxRjFGMSIgaGVpZ2h0PSI0OCIgaWQ9IkRlbW9BQVBJIiByeD0iMi41IiByeT0iMi41IiBzdHlsZT0ic3Ryb2tlOiMxODE4MTg7c3Ryb2tlLXdpZHRoOjAuNTsiIHdpZHRoPSI4OSIgeD0iMTc5NC41IiB5PSI0MDgiLz48ZWxsaXBzZSBjeD0iMTgwOS41IiBjeT0iNDI0IiBmaWxsPSIjQjRBN0U1IiByeD0iMTEiIHJ5PSIxMSIgc3R5bGU9InN0cm9rZTojMTgxODE4O3N0cm9rZS13aWR0aDoxLjA7Ii8+PHBhdGggZD0iTTE4MTIuNjI1LDQzMCBMMTgxMi42MjUsNDI4LjI1IEwxODEwLjUsNDI4LjI1IFExODEwLjUsNDI4LjI1IDE4MTAuNSw0MjAuNDM3NSBMMTgxMi42MjUsNDIwLjQzNzUgTDE4MTIuNjI1LDQxOC42ODc1IEwxODA2LjYyNSw0MTguNjg3NSBMMTgwNi42MjUsNDIwLjQzNzUgTDE4MDguNzUsNDIwLjQzNzUgUTE4MDguNzUsNDIwLjQzNzUgMTgwOC43NSw0MjguMjUgTDE4MDYuNjI1LDQyOC4yNSBMMTgwNi42MjUsNDMwIEwxODEyLjYyNSw0MzAgWiAiIGZpbGw9IiMwMDAwMDAiLz48dGV4dCBmaWxsPSIjMDAwMDAwIiBmb250LWZhbWlseT0ic2Fucy1zZXJpZiIgZm9udC1zaXplPSIxNCIgZm9udC1zdHlsZT0iaXRhbGljIiBsZW5ndGhBZGp1c3Q9InNwYWNpbmciIHRleHRMZW5ndGg9IjU3IiB4PSIxODIzLjUiIHk9IjQyOS43NDIyIj5EZW1vQUFQSTwvdGV4dD48bGluZSBzdHlsZT0ic3Ryb2tlOiMxODE4MTg7c3Ryb2tlLXdpZHRoOjAuNTsiIHgxPSIxNzk1LjUiIHgyPSIxODgyLjUiIHkxPSI0NDAiIHkyPSI0NDAiLz48bGluZSBzdHlsZT0ic3Ryb2tlOiMxODE4MTg7c3Ryb2tlLXdpZHRoOjAuNTsiIHgxPSIxNzk1LjUiIHgyPSIxODgyLjUiIHkxPSI0NDgiIHkyPSI0NDgiLz48L2c+PCEtLWNsYXNzIERlbW9BQVBJUmVxLS0+PGcgaWQ9ImVsZW1fRGVtb0FBUElSZXEiPjxyZWN0IGNvZGVMaW5lPSIyMyIgZmlsbD0iI0YxRjFGMSIgaGVpZ2h0PSI0OCIgaWQ9IkRlbW9BQVBJUmVxIiByeD0iMi41IiByeT0iMi41IiBzdHlsZT0ic3Ryb2tlOiMxODE4MTg7c3Ryb2tlLXdpZHRoOjAuNTsiIHdpZHRoPSIxMTAiIHg9IjE2NDYiIHk9IjYzMC41Ii8+PGVsbGlwc2UgY3g9IjE2NjEiIGN5PSI2NDYuNSIgZmlsbD0iI0FERDFCMiIgcng9IjExIiByeT0iMTEiIHN0eWxlPSJzdHJva2U6IzE4MTgxODtzdHJva2Utd2lkdGg6MS4wOyIvPjxwYXRoIGQ9Ik0xNjU4LjYyNSw2NTAuNzUgTDE2NTguNjI1LDY1Mi41IEwxNjYzLjU2MjUsNjUyLjUgTDE2NjMuNTYyNSw2NTAuNzUgTDE2NTguNjI1LDY1MC43NSBaIE0xNjU5LjMxMjUsNjUxLjQzNzUgUTE2NTkuMzEyNSw2NTEuNDM3NSAxNjU5LjMxMjUsNjQyLjI1IEwxNjU3LjU2MjUsNjQyLjI1IFExNjU3LjU2MjUsNjQyLjI1IDE2NTcuNTYyNSw2NTEuNDM3NSBMMTY1OS4zMTI1LDY1MS40Mzc1IFogTTE2NjIuODc1LDY1MS40Mzc1IEwxNjY0LjYyNSw2NTEuNDM3NSBRMTY2NC42MjUsNjUxLjQzNzUgMTY2NC42MjUsNjQ4LjYyNSBMMTY2Mi44NzUsNjQ4LjYyNSBRMTY2Mi44NzUsNjQ4LjYyNSAxNjYyLjg3NSw2NTEuNDM3NSBaIE0xNjYyLjg3NSw2NDIuMjUgUTE2NjIuODc1LDY0Mi4yNSAxNjYyLjg3NSw2NDUuMDYyNSBMMTY2NC42MjUsNjQ1LjA2MjUgUTE2NjQuNjI1LDY0NS4wNjI1IDE2NjQuNjI1LDY0Mi4yNSBMMTY2Mi44NzUsNjQyLjI1IFogTTE2NTguNjI1LDY0Mi45Mzc1IEwxNjYzLjU2MjUsNjQyLjkzNzUgTDE2NjMuNTYyNSw2NDEuMTg3NSBMMTY1OC42MjUsNjQxLjE4NzUgTDE2NTguNjI1LDY0Mi45Mzc1IFogIiBmaWxsPSIjMDAwMDAwIi8+PHRleHQgZmlsbD0iIzAwMDAwMCIgZm9udC1mYW1pbHk9InNhbnMtc2VyaWYiIGZvbnQtc2l6ZT0iMTQiIGxlbmd0aEFkanVzdD0ic3BhY2luZyIgdGV4dExlbmd0aD0iNzgiIHg9IjE2NzUiIHk9IjY1Mi4yNDIyIj5EZW1vQUFQSVJlcTwvdGV4dD48bGluZSBzdHlsZT0ic3Ryb2tlOiMxODE4MTg7c3Ryb2tlLXdpZHRoOjAuNTsiIHgxPSIxNjQ3IiB4Mj0iMTc1NSIgeTE9IjY2Mi41IiB5Mj0iNjYyLjUiLz48bGluZSBzdHlsZT0ic3Ryb2tlOiMxODE4MTg7c3Ryb2tlLXdpZHRoOjAuNTsiIHgxPSIxNjQ3IiB4Mj0iMTc1NSIgeTE9IjY3MC41IiB5Mj0iNjcwLjUiLz48L2c+PCEtLWNsYXNzIEFBUElEYW8tLT48ZyBpZD0iZWxlbV9BQVBJRGFvIj48cmVjdCBjb2RlTGluZT0iMjEiIGZpbGw9IiNGMUYxRjEiIGhlaWdodD0iNDgiIGlkPSJBQVBJRGFvIiByeD0iMi41IiByeT0iMi41IiBzdHlsZT0ic3Ryb2tlOiMxODE4MTg7c3Ryb2tlLXdpZHRoOjAuNTsiIHdpZHRoPSI4MSIgeD0iMTQ1Ni41IiB5PSI0MDgiLz48ZWxsaXBzZSBjeD0iMTQ3MS41IiBjeT0iNDI0IiBmaWxsPSIjQUREMUIyIiByeD0iMTEiIHJ5PSIxMSIgc3R5bGU9InN0cm9rZTojMTgxODE4O3N0cm9rZS13aWR0aDoxLjA7Ii8+PHBhdGggZD0iTTE0NjkuMTI1LDQyOC4yNSBMMTQ2OS4xMjUsNDMwIEwxNDc0LjA2MjUsNDMwIEwxNDc0LjA2MjUsNDI4LjI1IEwxNDY5LjEyNSw0MjguMjUgWiBNMTQ2OS44MTI1LDQyOC45Mzc1IFExNDY5LjgxMjUsNDI4LjkzNzUgMTQ2OS44MTI1LDQxOS43NSBMMTQ2OC4wNjI1LDQxOS43NSBRMTQ2OC4wNjI1LDQxOS43NSAxNDY4LjA2MjUsNDI4LjkzNzUgTDE0NjkuODEyNSw0MjguOTM3NSBaIE0xNDczLjM3NSw0MjguOTM3NSBMMTQ3NS4xMjUsNDI4LjkzNzUgUTE0NzUuMTI1LDQyOC45Mzc1IDE0NzUuMTI1LDQyNi4xMjUgTDE0NzMuMzc1LDQyNi4xMjUgUTE0NzMuMzc1LDQyNi4xMjUgMTQ3My4zNzUsNDI4LjkzNzUgWiBNMTQ3My4zNzUsNDE5Ljc1IFExNDczLjM3NSw0MTkuNzUgMTQ3My4zNzUsNDIyLjU2MjUgTDE0NzUuMTI1LDQyMi41NjI1IFExNDc1LjEyNSw0MjIuNTYyNSAxNDc1LjEyNSw0MTkuNzUgTDE0NzMuMzc1LDQxOS43NSBaIE0xNDY5LjEyNSw0MjAuNDM3NSBMMTQ3NC4wNjI1LDQyMC40Mzc1IEwxNDc0LjA2MjUsNDE4LjY4NzUgTDE0NjkuMTI1LDQxOC42ODc1IEwxNDY5LjEyNSw0MjAuNDM3NSBaICIgZmlsbD0iIzAwMDAwMCIvPjx0ZXh0IGZpbGw9IiMwMDAwMDAiIGZvbnQtZmFtaWx5PSJzYW5zLXNlcmlmIiBmb250LXNpemU9IjE0IiBsZW5ndGhBZGp1c3Q9InNwYWNpbmciIHRleHRMZW5ndGg9IjQ5IiB4PSIxNDg1LjUiIHk9IjQyOS43NDIyIj5BQVBJRGFvPC90ZXh0PjxsaW5lIHN0eWxlPSJzdHJva2U6IzE4MTgxODtzdHJva2Utd2lkdGg6MC41OyIgeDE9IjE0NTcuNSIgeDI9IjE1MzYuNSIgeTE9IjQ0MCIgeTI9IjQ0MCIvPjxsaW5lIHN0eWxlPSJzdHJva2U6IzE4MTgxODtzdHJva2Utd2lkdGg6MC41OyIgeDE9IjE0NTcuNSIgeDI9IjE1MzYuNSIgeTE9IjQ0OCIgeTI9IjQ0OCIvPjwvZz48IS0tY2xhc3MgQUFQSVBPLS0+PGcgaWQ9ImVsZW1fQUFQSVBPIj48cmVjdCBjb2RlTGluZT0iMjUiIGZpbGw9IiNGMUYxRjEiIGhlaWdodD0iNDgiIGlkPSJBQVBJUE8iIHJ4PSIyLjUiIHJ5PSIyLjUiIHN0eWxlPSJzdHJva2U6IzE4MTgxODtzdHJva2Utd2lkdGg6MC41OyIgd2lkdGg9Ijc0IiB4PSIxMzAyIiB5PSI0MDgiLz48ZWxsaXBzZSBjeD0iMTMxNyIgY3k9IjQyNCIgZmlsbD0iI0FERDFCMiIgcng9IjExIiByeT0iMTEiIHN0eWxlPSJzdHJva2U6IzE4MTgxODtzdHJva2Utd2lkdGg6MS4wOyIvPjxwYXRoIGQ9Ik0xMzE0LjYyNSw0MjguMjUgTDEzMTQuNjI1LDQzMCBMMTMxOS41NjI1LDQzMCBMMTMxOS41NjI1LDQyOC4yNSBMMTMxNC42MjUsNDI4LjI1IFogTTEzMTUuMzEyNSw0MjguOTM3NSBRMTMxNS4zMTI1LDQyOC45Mzc1IDEzMTUuMzEyNSw0MTkuNzUgTDEzMTMuNTYyNSw0MTkuNzUgUTEzMTMuNTYyNSw0MTkuNzUgMTMxMy41NjI1LDQyOC45Mzc1IEwxMzE1LjMxMjUsNDI4LjkzNzUgWiBNMTMxOC44NzUsNDI4LjkzNzUgTDEzMjAuNjI1LDQyOC45Mzc1IFExMzIwLjYyNSw0MjguOTM3NSAxMzIwLjYyNSw0MjYuMTI1IEwxMzE4Ljg3NSw0MjYuMTI1IFExMzE4Ljg3NSw0MjYuMTI1IDEzMTguODc1LDQyOC45Mzc1IFogTTEzMTguODc1LDQxOS43NSBRMTMxOC44NzUsNDE5Ljc1IDEzMTguODc1LDQyMi41NjI1IEwxMzIwLjYyNSw0MjIuNTYyNSBRMTMyMC42MjUsNDIyLjU2MjUgMTMyMC42MjUsNDE5Ljc1IEwxMzE4Ljg3NSw0MTkuNzUgWiBNMTMxNC42MjUsNDIwLjQzNzUgTDEzMTkuNTYyNSw0MjAuNDM3NSBMMTMxOS41NjI1LDQxOC42ODc1IEwxMzE0LjYyNSw0MTguNjg3NSBMMTMxNC42MjUsNDIwLjQzNzUgWiAiIGZpbGw9IiMwMDAwMDAiLz48dGV4dCBmaWxsPSIjMDAwMDAwIiBmb250LWZhbWlseT0ic2Fucy1zZXJpZiIgZm9udC1zaXplPSIxNCIgbGVuZ3RoQWRqdXN0PSJzcGFjaW5nIiB0ZXh0TGVuZ3RoPSI0MiIgeD0iMTMzMSIgeT0iNDI5Ljc0MjIiPkFBUElQTzwvdGV4dD48bGluZSBzdHlsZT0ic3Ryb2tlOiMxODE4MTg7c3Ryb2tlLXdpZHRoOjAuNTsiIHgxPSIxMzAzIiB4Mj0iMTM3NSIgeTE9IjQ0MCIgeTI9IjQ0MCIvPjxsaW5lIHN0eWxlPSJzdHJva2U6IzE4MTgxODtzdHJva2Utd2lkdGg6MC41OyIgeDE9IjEzMDMiIHgyPSIxMzc1IiB5MT0iNDQ4IiB5Mj0iNDQ4Ii8+PC9nPjwhLS1jbGFzcyBVc2VyQ29udmVydC0tPjxnIGlkPSJlbGVtX1VzZXJDb252ZXJ0Ij48cmVjdCBjb2RlTGluZT0iMTYiIGZpbGw9IiNGMUYxRjEiIGhlaWdodD0iOTIuOTUzMSIgaWQ9IlVzZXJDb252ZXJ0IiByeD0iMi41IiByeT0iMi41IiBzdHlsZT0ic3Ryb2tlOiMxODE4MTg7c3Ryb2tlLXdpZHRoOjAuNTsiIHdpZHRoPSIzMzYiIHg9IjYyMiIgeT0iMzg1LjUiLz48ZWxsaXBzZSBjeD0iNzQ3LjI1IiBjeT0iNDAxLjUiIGZpbGw9IiNCNEE3RTUiIHJ4PSIxMSIgcnk9IjExIiBzdHlsZT0ic3Ryb2tlOiMxODE4MTg7c3Ryb2tlLXdpZHRoOjEuMDsiLz48cGF0aCBkPSJNNzUwLjM3NSw0MDcuNSBMNzUwLjM3NSw0MDUuNzUgTDc0OC4yNSw0MDUuNzUgUTc0OC4yNSw0MDUuNzUgNzQ4LjI1LDM5Ny45Mzc1IEw3NTAuMzc1LDM5Ny45Mzc1IEw3NTAuMzc1LDM5Ni4xODc1IEw3NDQuMzc1LDM5Ni4xODc1IEw3NDQuMzc1LDM5Ny45Mzc1IEw3NDYuNSwzOTcuOTM3NSBRNzQ2LjUsMzk3LjkzNzUgNzQ2LjUsNDA1Ljc1IEw3NDQuMzc1LDQwNS43NSBMNzQ0LjM3NSw0MDcuNSBMNzUwLjM3NSw0MDcuNSBaICIgZmlsbD0iIzAwMDAwMCIvPjx0ZXh0IGZpbGw9IiMwMDAwMDAiIGZvbnQtZmFtaWx5PSJzYW5zLXNlcmlmIiBmb250LXNpemU9IjE0IiBmb250LXN0eWxlPSJpdGFsaWMiIGxlbmd0aEFkanVzdD0ic3BhY2luZyIgdGV4dExlbmd0aD0iNzciIHg9Ijc2Ny43NSIgeT0iNDA3LjI0MjIiPlVzZXJDb252ZXJ0PC90ZXh0PjxsaW5lIHN0eWxlPSJzdHJva2U6IzE4MTgxODtzdHJva2Utd2lkdGg6MC41OyIgeDE9IjYyMyIgeDI9Ijk1NyIgeTE9IjQxNy41IiB5Mj0iNDE3LjUiLz48cG9seWdvbiBmaWxsPSJub25lIiBwb2ludHM9IjYzMyw0MjYuNDkyMiw2MjksNDMyLjQ5MjIsNjM3LDQzMi40OTIyIiBzdHlsZT0ic3Ryb2tlOiMxOTYzQTA7c3Ryb2tlLXdpZHRoOjEuMDsiLz48dGV4dCBmaWxsPSIjMDAwMDAwIiBmb250LWZhbWlseT0ic2Fucy1zZXJpZiIgZm9udC1zaXplPSIxNCIgbGVuZ3RoQWRqdXN0PSJzcGFjaW5nIiB0ZXh0LWRlY29yYXRpb249InVuZGVybGluZSIgdGV4dExlbmd0aD0iMTY4IiB4PSI2NDIiIHk9IjQzNC43MzQ0Ij5Vc2VyQ29udmVydCBVU0VSX0NPTlZFUlQ8L3RleHQ+PGxpbmUgc3R5bGU9InN0cm9rZTojMTgxODE4O3N0cm9rZS13aWR0aDowLjU7IiB4MT0iNjIzIiB4Mj0iOTU3IiB5MT0iNDQwLjQ4NDQiIHkyPSI0NDAuNDg0NCIvPjxwb2x5Z29uIGZpbGw9IiM0MTc3QUYiIHBvaW50cz0iNjMzLDQ0OS40NzY2LDYyOSw0NTUuNDc2Niw2MzcsNDU1LjQ3NjYiIHN0eWxlPSJzdHJva2U6IzE5NjNBMDtzdHJva2Utd2lkdGg6MS4wOyIvPjx0ZXh0IGZpbGw9IiMwMDAwMDAiIGZvbnQtZmFtaWx5PSJzYW5zLXNlcmlmIiBmb250LXNpemU9IjE0IiBsZW5ndGhBZGp1c3Q9InNwYWNpbmciIHRleHRMZW5ndGg9IjMxMCIgeD0iNjQyIiB5PSI0NTcuNzE4OCI+TGlzdCZsdDtVc2VyUmVzcCZndDsgY29udmVydDJVc2VyUmVzcHMoTGlzdCZsdDtVc2VyJmd0Oyk8L3RleHQ+PHBvbHlnb24gZmlsbD0iIzQxNzdBRiIgcG9pbnRzPSI2MzMsNDY0LjQ2MDksNjI5LDQ3MC40NjA5LDYzNyw0NzAuNDYwOSIgc3R5bGU9InN0cm9rZTojMTk2M0EwO3N0cm9rZS13aWR0aDoxLjA7Ii8+PHRleHQgZmlsbD0iIzAwMDAwMCIgZm9udC1mYW1pbHk9InNhbnMtc2VyaWYiIGZvbnQtc2l6ZT0iMTQiIGxlbmd0aEFkanVzdD0ic3BhY2luZyIgdGV4dExlbmd0aD0iMjE5IiB4PSI2NDIiIHk9IjQ3Mi43MDMxIj5Vc2VyUmVzcCBjb252ZXJ0MlVzZXJSZXNwKFVzZXIpPC90ZXh0PjwvZz48IS0tY2xhc3MgQ29tbW9uQ29uc3RhbnRzLS0+PGcgaWQ9ImVsZW1fQ29tbW9uQ29uc3RhbnRzIj48cmVjdCBjb2RlTGluZT0iMjciIGZpbGw9IiNGMUYxRjEiIGhlaWdodD0iNzcuOTY4OCIgaWQ9IkNvbW1vbkNvbnN0YW50cyIgcng9IjIuNSIgcnk9IjIuNSIgc3R5bGU9InN0cm9rZTojMTgxODE4O3N0cm9rZS13aWR0aDowLjU7IiB3aWR0aD0iMTY2IiB4PSI0MDAiIHk9IjM5MyIvPjxlbGxpcHNlIGN4PSI0MjcuMTUiIGN5PSI0MDkiIGZpbGw9IiNBREQxQjIiIHJ4PSIxMSIgcnk9IjExIiBzdHlsZT0ic3Ryb2tlOiMxODE4MTg7c3Ryb2tlLXdpZHRoOjEuMDsiLz48cGF0aCBkPSJNNDI0Ljc3NSw0MTMuMjUgTDQyNC43NzUsNDE1IEw0MjkuNzEyNSw0MTUgTDQyOS43MTI1LDQxMy4yNSBMNDI0Ljc3NSw0MTMuMjUgWiBNNDI1LjQ2MjUsNDEzLjkzNzUgUTQyNS40NjI1LDQxMy45Mzc1IDQyNS40NjI1LDQwNC43NSBMNDIzLjcxMjUsNDA0Ljc1IFE0MjMuNzEyNSw0MDQuNzUgNDIzLjcxMjUsNDEzLjkzNzUgTDQyNS40NjI1LDQxMy45Mzc1IFogTTQyOS4wMjUsNDEzLjkzNzUgTDQzMC43NzUsNDEzLjkzNzUgUTQzMC43NzUsNDEzLjkzNzUgNDMwLjc3NSw0MTEuMTI1IEw0MjkuMDI1LDQxMS4xMjUgUTQyOS4wMjUsNDExLjEyNSA0MjkuMDI1LDQxMy45Mzc1IFogTTQyOS4wMjUsNDA0Ljc1IFE0MjkuMDI1LDQwNC43NSA0MjkuMDI1LDQwNy41NjI1IEw0MzAuNzc1LDQwNy41NjI1IFE0MzAuNzc1LDQwNy41NjI1IDQzMC43NzUsNDA0Ljc1IEw0MjkuMDI1LDQwNC43NSBaIE00MjQuNzc1LDQwNS40Mzc1IEw0MjkuNzEyNSw0MDUuNDM3NSBMNDI5LjcxMjUsNDAzLjY4NzUgTDQyNC43NzUsNDAzLjY4NzUgTDQyNC43NzUsNDA1LjQzNzUgWiAiIGZpbGw9IiMwMDAwMDAiLz48dGV4dCBmaWxsPSIjMDAwMDAwIiBmb250LWZhbWlseT0ic2Fucy1zZXJpZiIgZm9udC1zaXplPSIxNCIgbGVuZ3RoQWRqdXN0PSJzcGFjaW5nIiB0ZXh0TGVuZ3RoPSIxMDciIHg9IjQ0My44NSIgeT0iNDE0Ljc0MjIiPkNvbW1vbkNvbnN0YW50czwvdGV4dD48bGluZSBzdHlsZT0ic3Ryb2tlOiMxODE4MTg7c3Ryb2tlLXdpZHRoOjAuNTsiIHgxPSI0MDEiIHgyPSI1NjUiIHkxPSI0MjUiIHkyPSI0MjUiLz48ZWxsaXBzZSBjeD0iNDExIiBjeT0iNDM3Ljk5MjIiIGZpbGw9Im5vbmUiIHJ4PSIzIiByeT0iMyIgc3R5bGU9InN0cm9rZTojMDM4MDQ4O3N0cm9rZS13aWR0aDoxLjA7Ii8+PHRleHQgZmlsbD0iIzAwMDAwMCIgZm9udC1mYW1pbHk9InNhbnMtc2VyaWYiIGZvbnQtc2l6ZT0iMTQiIGxlbmd0aEFkanVzdD0ic3BhY2luZyIgdGV4dC1kZWNvcmF0aW9uPSJ1bmRlcmxpbmUiIHRleHRMZW5ndGg9IjExMiIgeD0iNDIwIiB5PSI0NDIuMjM0NCI+SW50ZWdlciBEQVRBX0RFTDwvdGV4dD48ZWxsaXBzZSBjeD0iNDExIiBjeT0iNDUyLjk3NjYiIGZpbGw9Im5vbmUiIHJ4PSIzIiByeT0iMyIgc3R5bGU9InN0cm9rZTojMDM4MDQ4O3N0cm9rZS13aWR0aDoxLjA7Ii8+PHRleHQgZmlsbD0iIzAwMDAwMCIgZm9udC1mYW1pbHk9InNhbnMtc2VyaWYiIGZvbnQtc2l6ZT0iMTQiIGxlbmd0aEFkanVzdD0ic3BhY2luZyIgdGV4dC1kZWNvcmF0aW9uPSJ1bmRlcmxpbmUiIHRleHRMZW5ndGg9IjE0MCIgeD0iNDIwIiB5PSI0NTcuMjE4OCI+SW50ZWdlciBEQVRBX05PVF9ERUw8L3RleHQ+PGxpbmUgc3R5bGU9InN0cm9rZTojMTgxODE4O3N0cm9rZS13aWR0aDowLjU7IiB4MT0iNDAxIiB4Mj0iNTY1IiB5MT0iNDYyLjk2ODgiIHkyPSI0NjIuOTY4OCIvPjwvZz48IS0tY2xhc3MgVGVzdC0tPjxnIGlkPSJlbGVtX1Rlc3QiPjxyZWN0IGNvZGVMaW5lPSI0MiIgZmlsbD0iI0YxRjFGMSIgaGVpZ2h0PSI2Mi45ODQ0IiBpZD0iVGVzdCIgcng9IjIuNSIgcnk9IjIuNSIgc3R5bGU9InN0cm9rZTojMTgxODE4O3N0cm9rZS13aWR0aDowLjU7IiB3aWR0aD0iMTA1IiB4PSI5NC41IiB5PSI0MDAuNSIvPjxlbGxpcHNlIGN4PSIxMjkuNzUiIGN5PSI0MTYuNSIgZmlsbD0iI0FERDFCMiIgcng9IjExIiByeT0iMTEiIHN0eWxlPSJzdHJva2U6IzE4MTgxODtzdHJva2Utd2lkdGg6MS4wOyIvPjxwYXRoIGQ9Ik0xMjcuMzc1LDQyMC43NSBMMTI3LjM3NSw0MjIuNSBMMTMyLjMxMjUsNDIyLjUgTDEzMi4zMTI1LDQyMC43NSBMMTI3LjM3NSw0MjAuNzUgWiBNMTI4LjA2MjUsNDIxLjQzNzUgUTEyOC4wNjI1LDQyMS40Mzc1IDEyOC4wNjI1LDQxMi4yNSBMMTI2LjMxMjUsNDEyLjI1IFExMjYuMzEyNSw0MTIuMjUgMTI2LjMxMjUsNDIxLjQzNzUgTDEyOC4wNjI1LDQyMS40Mzc1IFogTTEzMS42MjUsNDIxLjQzNzUgTDEzMy4zNzUsNDIxLjQzNzUgUTEzMy4zNzUsNDIxLjQzNzUgMTMzLjM3NSw0MTguNjI1IEwxMzEuNjI1LDQxOC42MjUgUTEzMS42MjUsNDE4LjYyNSAxMzEuNjI1LDQyMS40Mzc1IFogTTEzMS42MjUsNDEyLjI1IFExMzEuNjI1LDQxMi4yNSAxMzEuNjI1LDQxNS4wNjI1IEwxMzMuMzc1LDQxNS4wNjI1IFExMzMuMzc1LDQxNS4wNjI1IDEzMy4zNzUsNDEyLjI1IEwxMzEuNjI1LDQxMi4yNSBaIE0xMjcuMzc1LDQxMi45Mzc1IEwxMzIuMzEyNSw0MTIuOTM3NSBMMTMyLjMxMjUsNDExLjE4NzUgTDEyNy4zNzUsNDExLjE4NzUgTDEyNy4zNzUsNDEyLjkzNzUgWiAiIGZpbGw9IiMwMDAwMDAiLz48dGV4dCBmaWxsPSIjMDAwMDAwIiBmb250LWZhbWlseT0ic2Fucy1zZXJpZiIgZm9udC1zaXplPSIxNCIgbGVuZ3RoQWRqdXN0PSJzcGFjaW5nIiB0ZXh0TGVuZ3RoPSIyOCIgeD0iMTQ4LjI1IiB5PSI0MjIuMjQyMiI+VGVzdDwvdGV4dD48bGluZSBzdHlsZT0ic3Ryb2tlOiMxODE4MTg7c3Ryb2tlLXdpZHRoOjAuNTsiIHgxPSI5NS41IiB4Mj0iMTk4LjUiIHkxPSI0MzIuNSIgeTI9IjQzMi41Ii8+PGxpbmUgc3R5bGU9InN0cm9rZTojMTgxODE4O3N0cm9rZS13aWR0aDowLjU7IiB4MT0iOTUuNSIgeDI9IjE5OC41IiB5MT0iNDQwLjUiIHkyPSI0NDAuNSIvPjxlbGxpcHNlIGN4PSIxMDUuNSIgY3k9IjQ1My40OTIyIiBmaWxsPSIjODRCRTg0IiByeD0iMyIgcnk9IjMiIHN0eWxlPSJzdHJva2U6IzAzODA0ODtzdHJva2Utd2lkdGg6MS4wOyIvPjx0ZXh0IGZpbGw9IiMwMDAwMDAiIGZvbnQtZmFtaWx5PSJzYW5zLXNlcmlmIiBmb250LXNpemU9IjE0IiBsZW5ndGhBZGp1c3Q9InNwYWNpbmciIHRleHRMZW5ndGg9Ijc5IiB4PSIxMTQuNSIgeT0iNDU3LjczNDQiPnZvaWQgdGVzdCgpPC90ZXh0PjwvZz48IS0tY2xhc3MgTWFpbi0tPjxnIGlkPSJlbGVtX01haW4iPjxyZWN0IGNvZGVMaW5lPSIzMSIgZmlsbD0iI0YxRjFGMSIgaGVpZ2h0PSI2Mi45ODQ0IiBpZD0iTWFpbiIgcng9IjIuNSIgcnk9IjIuNSIgc3R5bGU9InN0cm9rZTojMTgxODE4O3N0cm9rZS13aWR0aDowLjU7IiB3aWR0aD0iMTYyIiB4PSI0MDI1IiB5PSI0MDAuNSIvPjxlbGxpcHNlIGN4PSI0MDg3Ljc1IiBjeT0iNDE2LjUiIGZpbGw9IiNBREQxQjIiIHJ4PSIxMSIgcnk9IjExIiBzdHlsZT0ic3Ryb2tlOiMxODE4MTg7c3Ryb2tlLXdpZHRoOjEuMDsiLz48cGF0aCBkPSJNNDA4NS4zNzUsNDIwLjc1IEw0MDg1LjM3NSw0MjIuNSBMNDA5MC4zMTI1LDQyMi41IEw0MDkwLjMxMjUsNDIwLjc1IEw0MDg1LjM3NSw0MjAuNzUgWiBNNDA4Ni4wNjI1LDQyMS40Mzc1IFE0MDg2LjA2MjUsNDIxLjQzNzUgNDA4Ni4wNjI1LDQxMi4yNSBMNDA4NC4zMTI1LDQxMi4yNSBRNDA4NC4zMTI1LDQxMi4yNSA0MDg0LjMxMjUsNDIxLjQzNzUgTDQwODYuMDYyNSw0MjEuNDM3NSBaIE00MDg5LjYyNSw0MjEuNDM3NSBMNDA5MS4zNzUsNDIxLjQzNzUgUTQwOTEuMzc1LDQyMS40Mzc1IDQwOTEuMzc1LDQxOC42MjUgTDQwODkuNjI1LDQxOC42MjUgUTQwODkuNjI1LDQxOC42MjUgNDA4OS42MjUsNDIxLjQzNzUgWiBNNDA4OS42MjUsNDEyLjI1IFE0MDg5LjYyNSw0MTIuMjUgNDA4OS42MjUsNDE1LjA2MjUgTDQwOTEuMzc1LDQxNS4wNjI1IFE0MDkxLjM3NSw0MTUuMDYyNSA0MDkxLjM3NSw0MTIuMjUgTDQwODkuNjI1LDQxMi4yNSBaIE00MDg1LjM3NSw0MTIuOTM3NSBMNDA5MC4zMTI1LDQxMi45Mzc1IEw0MDkwLjMxMjUsNDExLjE4NzUgTDQwODUuMzc1LDQxMS4xODc1IEw0MDg1LjM3NSw0MTIuOTM3NSBaICIgZmlsbD0iIzAwMDAwMCIvPjx0ZXh0IGZpbGw9IiMwMDAwMDAiIGZvbnQtZmFtaWx5PSJzYW5zLXNlcmlmIiBmb250LXNpemU9IjE0IiBsZW5ndGhBZGp1c3Q9InNwYWNpbmciIHRleHRMZW5ndGg9IjI4IiB4PSI0MTA4LjI1IiB5PSI0MjIuMjQyMiI+TWFpbjwvdGV4dD48bGluZSBzdHlsZT0ic3Ryb2tlOiMxODE4MTg7c3Ryb2tlLXdpZHRoOjAuNTsiIHgxPSI0MDI2IiB4Mj0iNDE4NiIgeTE9IjQzMi41IiB5Mj0iNDMyLjUiLz48bGluZSBzdHlsZT0ic3Ryb2tlOiMxODE4MTg7c3Ryb2tlLXdpZHRoOjAuNTsiIHgxPSI0MDI2IiB4Mj0iNDE4NiIgeTE9IjQ0MC41IiB5Mj0iNDQwLjUiLz48ZWxsaXBzZSBjeD0iNDAzNiIgY3k9IjQ1My40OTIyIiBmaWxsPSIjODRCRTg0IiByeD0iMyIgcnk9IjMiIHN0eWxlPSJzdHJva2U6IzAzODA0ODtzdHJva2Utd2lkdGg6MS4wOyIvPjx0ZXh0IGZpbGw9IiMwMDAwMDAiIGZvbnQtZmFtaWx5PSJzYW5zLXNlcmlmIiBmb250LXNpemU9IjE0IiBsZW5ndGhBZGp1c3Q9InNwYWNpbmciIHRleHQtZGVjb3JhdGlvbj0idW5kZXJsaW5lIiB0ZXh0TGVuZ3RoPSIxMzYiIHg9IjQwNDUiIHk9IjQ1Ny43MzQ0Ij52b2lkIG1haW4oU3RyaW5nW10pPC90ZXh0PjwvZz48IS0tU1JDPVtsTEhEUnppbTNCdGRMLVplTzlXRUZHeTVGM2owMHBHVklEblRYZzVXUENLSlFlY0FmN2gzWWt3dFpyOElEcmxRVklOUm9VR1p6S0ctcUhHalVDeTRRaHUyXzc5bFUyc3IxTWxaNXhycWRIQUktbTBreURwUUxXYTgyV3J4NkJuWTNtRzc5SHZQWHdmYzZmSjliaTRmcXhwX0MxbXkzaUlGcEYxcWRYbEdhY2liTjd6N0dXSE9SWHFBd0p0TkNkcDRjZlRLSHB2OXpkbVJlU2xfZFhzaXVhaFJEbEtOZFNJVnB5VFowYXpZdGpTVG1EempNSWtvcGI1cGh5WDZlRjd0TWhoNEZ6YUtFX1RTbVlIRDNhTFBJNnlKZ3A5MWtaSzhVSXhjdHM4ejhhcjBCUmpVYVhPUjlKWjlxYWNRcTFqQUF4T3N5Tnp6Y2ozM21Dcm9qQldqUGpEdGVxTDVFVFZBWHBTbjdka3pQM2tnWXB0WWlweFhTYVpmVV9tZUNPbDZBTkRWR3UwTFVFZUZhNFU5SWkxX3lRQVJhcVp4QVl0SWZBelFjS2dUcHR2OS1XVGxJUXpjMFl6R1FwSjVwbE5WaHZtbkpLdVo3SWxwQWh5akh6U2xuZ1FwQWlOdG5LcmVKVnNGeEhLckp5aHl4RFR5VVRVSTJjbEx5RUtkUTllcWtrR0huc2tzaFA3SGdJYlRJTnNLQUV2YTg0MWJHdWhkTGV0RDZnQ1ZsdUdUakZmTVdmY1ozeGtZcTM1bDh6cVFGci0xZ1RrcUlKZkxJdFVLY0pxaElmMC1TM0lJTHNHYU1QRVE0T3U3bFc0MF0tLT48L2c+PC9zdmc+;" vertex="1" parent="1">
            <mxGeometry x="-1680" y="130" width="4194" height="893" as="geometry" />
          </mxCell>
        </UserObject>
        <UserObject label="" plantUmlData="{&quot;data&quot;:&quot;@startuml\nclass main.java.com.baozun.cloudopen.base.cache.CacheUtils {\n}\nclass main.java.com.baozun.cloudopen.base.log.LogUtils {\n}\nclass main.java.com.baozun.cloudopen.base.file.FileUtils {\n}\nclass main.java.com.baozun.cloudopen.base.tools.ZipTools {\n}\nclass main.java.com.baozun.cloudopen.base.db.DBUtils {\n}\nclass main.java.com.baozun.cloudopen.base.config.ApolloUtils {\n}\n@enduml&quot;,&quot;format&quot;:&quot;svg&quot;}" id="fXyq3lxdoWEQtrdsVO-e-2">
          <mxCell style="shape=image;noLabel=1;verticalAlign=top;aspect=fixed;imageAspect=0;image=data:image/svg+xml,PD94bWwgdmVyc2lvbj0iMS4wIiBlbmNvZGluZz0idXMtYXNjaWkiIHN0YW5kYWxvbmU9Im5vIj8+PHN2ZyB4bWxucz0iaHR0cDovL3d3dy53My5vcmcvMjAwMC9zdmciIHhtbG5zOnhsaW5rPSJodHRwOi8vd3d3LnczLm9yZy8xOTk5L3hsaW5rIiBjb250ZW50U3R5bGVUeXBlPSJ0ZXh0L2NzcyIgaGVpZ2h0PSI1MDBweCIgcHJlc2VydmVBc3BlY3RSYXRpbz0ibm9uZSIgc3R5bGU9IndpZHRoOjExNzlweDtoZWlnaHQ6NTAwcHg7YmFja2dyb3VuZDojRkZGRkZGOyIgdmVyc2lvbj0iMS4xIiB2aWV3Qm94PSIwIDAgMTE3OSA1MDAiIHdpZHRoPSIxMTc5cHgiIHpvb21BbmRQYW49Im1hZ25pZnkiPjxkZWZzLz48Zz48IS0tY2x1c3RlciBtYWluLS0+PGcgaWQ9ImNsdXN0ZXJfbWFpbiI+PHBhdGggZD0iTTguNSw2IEwzOC41LDYgQTMuNzUsMy43NSAwIDAgMSA0MSw4LjUgTDQ4LDI2Ljk4NDQgTDExNjkuNSwyNi45ODQ0IEEyLjUsMi41IDAgMCAxIDExNzIsMjkuNDg0NCBMMTE3Miw0OTAuNSBBMi41LDIuNSAwIDAgMSAxMTY5LjUsNDkzIEw4LjUsNDkzIEEyLjUsMi41IDAgMCAxIDYsNDkwLjUgTDYsOC41IEEyLjUsMi41IDAgMCAxIDguNSw2ICIgZmlsbD0ibm9uZSIgc3R5bGU9InN0cm9rZTojMDAwMDAwO3N0cm9rZS13aWR0aDoxLjU7Ii8+PGxpbmUgc3R5bGU9InN0cm9rZTojMDAwMDAwO3N0cm9rZS13aWR0aDoxLjU7IiB4MT0iNiIgeDI9IjQ4IiB5MT0iMjYuOTg0NCIgeTI9IjI2Ljk4NDQiLz48dGV4dCBmaWxsPSIjMDAwMDAwIiBmb250LWZhbWlseT0ic2Fucy1zZXJpZiIgZm9udC1zaXplPSIxNCIgZm9udC13ZWlnaHQ9ImJvbGQiIGxlbmd0aEFkanVzdD0ic3BhY2luZyIgdGV4dExlbmd0aD0iMjkiIHg9IjEwIiB5PSIyMS4yMzQ0Ij5tYWluPC90ZXh0PjwvZz48IS0tY2x1c3RlciBqYXZhLS0+PGcgaWQ9ImNsdXN0ZXJfamF2YSI+PHBhdGggZD0iTTMyLjUsNDcgTDYxLjUsNDcgQTMuNzUsMy43NSAwIDAgMSA2NCw0OS41IEw3MSw2Ny45ODQ0IEwxMTQ1LjUsNjcuOTg0NCBBMi41LDIuNSAwIDAgMSAxMTQ4LDcwLjQ4NDQgTDExNDgsNDY2LjUgQTIuNSwyLjUgMCAwIDEgMTE0NS41LDQ2OSBMMzIuNSw0NjkgQTIuNSwyLjUgMCAwIDEgMzAsNDY2LjUgTDMwLDQ5LjUgQTIuNSwyLjUgMCAwIDEgMzIuNSw0NyAiIGZpbGw9Im5vbmUiIHN0eWxlPSJzdHJva2U6IzAwMDAwMDtzdHJva2Utd2lkdGg6MS41OyIvPjxsaW5lIHN0eWxlPSJzdHJva2U6IzAwMDAwMDtzdHJva2Utd2lkdGg6MS41OyIgeDE9IjMwIiB4Mj0iNzEiIHkxPSI2Ny45ODQ0IiB5Mj0iNjcuOTg0NCIvPjx0ZXh0IGZpbGw9IiMwMDAwMDAiIGZvbnQtZmFtaWx5PSJzYW5zLXNlcmlmIiBmb250LXNpemU9IjE0IiBmb250LXdlaWdodD0iYm9sZCIgbGVuZ3RoQWRqdXN0PSJzcGFjaW5nIiB0ZXh0TGVuZ3RoPSIyOCIgeD0iMzQiIHk9IjYyLjIzNDQiPmphdmE8L3RleHQ+PC9nPjwhLS1jbHVzdGVyIGNvbS0tPjxnIGlkPSJjbHVzdGVyX2NvbSI+PHBhdGggZD0iTTU2LjUsODggTDc5LjUsODggQTMuNzUsMy43NSAwIDAgMSA4Miw5MC41IEw4OSwxMDguOTg0NCBMMTEyMS41LDEwOC45ODQ0IEEyLjUsMi41IDAgMCAxIDExMjQsMTExLjQ4NDQgTDExMjQsNDQyLjUgQTIuNSwyLjUgMCAwIDEgMTEyMS41LDQ0NSBMNTYuNSw0NDUgQTIuNSwyLjUgMCAwIDEgNTQsNDQyLjUgTDU0LDkwLjUgQTIuNSwyLjUgMCAwIDEgNTYuNSw4OCAiIGZpbGw9Im5vbmUiIHN0eWxlPSJzdHJva2U6IzAwMDAwMDtzdHJva2Utd2lkdGg6MS41OyIvPjxsaW5lIHN0eWxlPSJzdHJva2U6IzAwMDAwMDtzdHJva2Utd2lkdGg6MS41OyIgeDE9IjU0IiB4Mj0iODkiIHkxPSIxMDguOTg0NCIgeTI9IjEwOC45ODQ0Ii8+PHRleHQgZmlsbD0iIzAwMDAwMCIgZm9udC1mYW1pbHk9InNhbnMtc2VyaWYiIGZvbnQtc2l6ZT0iMTQiIGZvbnQtd2VpZ2h0PSJib2xkIiBsZW5ndGhBZGp1c3Q9InNwYWNpbmciIHRleHRMZW5ndGg9IjIyIiB4PSI1OCIgeT0iMTAzLjIzNDQiPmNvbTwvdGV4dD48L2c+PCEtLWNsdXN0ZXIgYmFvenVuLS0+PGcgaWQ9ImNsdXN0ZXJfYmFvenVuIj48cGF0aCBkPSJNODAuNSwxMjkgTDEyMy41LDEyOSBBMy43NSwzLjc1IDAgMCAxIDEyNiwxMzEuNSBMMTMzLDE0OS45ODQ0IEwxMDk3LjUsMTQ5Ljk4NDQgQTIuNSwyLjUgMCAwIDEgMTEwMCwxNTIuNDg0NCBMMTEwMCw0MTguNSBBMi41LDIuNSAwIDAgMSAxMDk3LjUsNDIxIEw4MC41LDQyMSBBMi41LDIuNSAwIDAgMSA3OCw0MTguNSBMNzgsMTMxLjUgQTIuNSwyLjUgMCAwIDEgODAuNSwxMjkgIiBmaWxsPSJub25lIiBzdHlsZT0ic3Ryb2tlOiMwMDAwMDA7c3Ryb2tlLXdpZHRoOjEuNTsiLz48bGluZSBzdHlsZT0ic3Ryb2tlOiMwMDAwMDA7c3Ryb2tlLXdpZHRoOjEuNTsiIHgxPSI3OCIgeDI9IjEzMyIgeTE9IjE0OS45ODQ0IiB5Mj0iMTQ5Ljk4NDQiLz48dGV4dCBmaWxsPSIjMDAwMDAwIiBmb250LWZhbWlseT0ic2Fucy1zZXJpZiIgZm9udC1zaXplPSIxNCIgZm9udC13ZWlnaHQ9ImJvbGQiIGxlbmd0aEFkanVzdD0ic3BhY2luZyIgdGV4dExlbmd0aD0iNDIiIHg9IjgyIiB5PSIxNDQuMjM0NCI+YmFvenVuPC90ZXh0PjwvZz48IS0tY2x1c3RlciBjbG91ZG9wZW4tLT48ZyBpZD0iY2x1c3Rlcl9jbG91ZG9wZW4iPjxwYXRoIGQ9Ik0xMDQuNSwxNzAgTDE2OC41LDE3MCBBMy43NSwzLjc1IDAgMCAxIDE3MSwxNzIuNSBMMTc4LDE5MC45ODQ0IEwxMDczLjUsMTkwLjk4NDQgQTIuNSwyLjUgMCAwIDEgMTA3NiwxOTMuNDg0NCBMMTA3NiwzOTQuNSBBMi41LDIuNSAwIDAgMSAxMDczLjUsMzk3IEwxMDQuNSwzOTcgQTIuNSwyLjUgMCAwIDEgMTAyLDM5NC41IEwxMDIsMTcyLjUgQTIuNSwyLjUgMCAwIDEgMTA0LjUsMTcwICIgZmlsbD0ibm9uZSIgc3R5bGU9InN0cm9rZTojMDAwMDAwO3N0cm9rZS13aWR0aDoxLjU7Ii8+PGxpbmUgc3R5bGU9InN0cm9rZTojMDAwMDAwO3N0cm9rZS13aWR0aDoxLjU7IiB4MT0iMTAyIiB4Mj0iMTc4IiB5MT0iMTkwLjk4NDQiIHkyPSIxOTAuOTg0NCIvPjx0ZXh0IGZpbGw9IiMwMDAwMDAiIGZvbnQtZmFtaWx5PSJzYW5zLXNlcmlmIiBmb250LXNpemU9IjE0IiBmb250LXdlaWdodD0iYm9sZCIgbGVuZ3RoQWRqdXN0PSJzcGFjaW5nIiB0ZXh0TGVuZ3RoPSI2MyIgeD0iMTA2IiB5PSIxODUuMjM0NCI+Y2xvdWRvcGVuPC90ZXh0PjwvZz48IS0tY2x1c3RlciBiYXNlLS0+PGcgaWQ9ImNsdXN0ZXJfYmFzZSI+PHBhdGggZD0iTTEyOC41LDIxMSBMMTU3LjUsMjExIEEzLjc1LDMuNzUgMCAwIDEgMTYwLDIxMy41IEwxNjcsMjMxLjk4NDQgTDEwNDkuNSwyMzEuOTg0NCBBMi41LDIuNSAwIDAgMSAxMDUyLDIzNC40ODQ0IEwxMDUyLDM3MC41IEEyLjUsMi41IDAgMCAxIDEwNDkuNSwzNzMgTDEyOC41LDM3MyBBMi41LDIuNSAwIDAgMSAxMjYsMzcwLjUgTDEyNiwyMTMuNSBBMi41LDIuNSAwIDAgMSAxMjguNSwyMTEgIiBmaWxsPSJub25lIiBzdHlsZT0ic3Ryb2tlOiMwMDAwMDA7c3Ryb2tlLXdpZHRoOjEuNTsiLz48bGluZSBzdHlsZT0ic3Ryb2tlOiMwMDAwMDA7c3Ryb2tlLXdpZHRoOjEuNTsiIHgxPSIxMjYiIHgyPSIxNjciIHkxPSIyMzEuOTg0NCIgeTI9IjIzMS45ODQ0Ii8+PHRleHQgZmlsbD0iIzAwMDAwMCIgZm9udC1mYW1pbHk9InNhbnMtc2VyaWYiIGZvbnQtc2l6ZT0iMTQiIGZvbnQtd2VpZ2h0PSJib2xkIiBsZW5ndGhBZGp1c3Q9InNwYWNpbmciIHRleHRMZW5ndGg9IjI4IiB4PSIxMzAiIHk9IjIyNi4yMzQ0Ij5iYXNlPC90ZXh0PjwvZz48IS0tY2x1c3RlciBjYWNoZS0tPjxnIGlkPSJjbHVzdGVyX2NhY2hlIj48cGF0aCBkPSJNODk2LjUsMjUyIEw5MzIuNSwyNTIgQTMuNzUsMy43NSAwIDAgMSA5MzUsMjU0LjUgTDk0MiwyNzIuOTg0NCBMMTAyNS41LDI3Mi45ODQ0IEEyLjUsMi41IDAgMCAxIDEwMjgsMjc1LjQ4NDQgTDEwMjgsMzQ2LjUgQTIuNSwyLjUgMCAwIDEgMTAyNS41LDM0OSBMODk2LjUsMzQ5IEEyLjUsMi41IDAgMCAxIDg5NCwzNDYuNSBMODk0LDI1NC41IEEyLjUsMi41IDAgMCAxIDg5Ni41LDI1MiAiIGZpbGw9Im5vbmUiIHN0eWxlPSJzdHJva2U6IzAwMDAwMDtzdHJva2Utd2lkdGg6MS41OyIvPjxsaW5lIHN0eWxlPSJzdHJva2U6IzAwMDAwMDtzdHJva2Utd2lkdGg6MS41OyIgeDE9Ijg5NCIgeDI9Ijk0MiIgeTE9IjI3Mi45ODQ0IiB5Mj0iMjcyLjk4NDQiLz48dGV4dCBmaWxsPSIjMDAwMDAwIiBmb250LWZhbWlseT0ic2Fucy1zZXJpZiIgZm9udC1zaXplPSIxNCIgZm9udC13ZWlnaHQ9ImJvbGQiIGxlbmd0aEFkanVzdD0ic3BhY2luZyIgdGV4dExlbmd0aD0iMzUiIHg9Ijg5OCIgeT0iMjY3LjIzNDQiPmNhY2hlPC90ZXh0PjwvZz48IS0tY2x1c3RlciBsb2ctLT48ZyBpZD0iY2x1c3Rlcl9sb2ciPjxwYXRoIGQ9Ik03NTIuNSwyNTIgTDc3NC41LDI1MiBBMy43NSwzLjc1IDAgMCAxIDc3NywyNTQuNSBMNzg0LDI3Mi45ODQ0IEw4NjcuNSwyNzIuOTg0NCBBMi41LDIuNSAwIDAgMSA4NzAsMjc1LjQ4NDQgTDg3MCwzNDYuNSBBMi41LDIuNSAwIDAgMSA4NjcuNSwzNDkgTDc1Mi41LDM0OSBBMi41LDIuNSAwIDAgMSA3NTAsMzQ2LjUgTDc1MCwyNTQuNSBBMi41LDIuNSAwIDAgMSA3NTIuNSwyNTIgIiBmaWxsPSJub25lIiBzdHlsZT0ic3Ryb2tlOiMwMDAwMDA7c3Ryb2tlLXdpZHRoOjEuNTsiLz48bGluZSBzdHlsZT0ic3Ryb2tlOiMwMDAwMDA7c3Ryb2tlLXdpZHRoOjEuNTsiIHgxPSI3NTAiIHgyPSI3ODQiIHkxPSIyNzIuOTg0NCIgeTI9IjI3Mi45ODQ0Ii8+PHRleHQgZmlsbD0iIzAwMDAwMCIgZm9udC1mYW1pbHk9InNhbnMtc2VyaWYiIGZvbnQtc2l6ZT0iMTQiIGZvbnQtd2VpZ2h0PSJib2xkIiBsZW5ndGhBZGp1c3Q9InNwYWNpbmciIHRleHRMZW5ndGg9IjIxIiB4PSI3NTQiIHk9IjI2Ny4yMzQ0Ij5sb2c8L3RleHQ+PC9nPjwhLS1jbHVzdGVyIGZpbGUtLT48ZyBpZD0iY2x1c3Rlcl9maWxlIj48cGF0aCBkPSJNNjAwLjUsMjUyIEw2MjkuNSwyNTIgQTMuNzUsMy43NSAwIDAgMSA2MzIsMjU0LjUgTDYzOSwyNzIuOTg0NCBMNzIzLjUsMjcyLjk4NDQgQTIuNSwyLjUgMCAwIDEgNzI2LDI3NS40ODQ0IEw3MjYsMzQ2LjUgQTIuNSwyLjUgMCAwIDEgNzIzLjUsMzQ5IEw2MDAuNSwzNDkgQTIuNSwyLjUgMCAwIDEgNTk4LDM0Ni41IEw1OTgsMjU0LjUgQTIuNSwyLjUgMCAwIDEgNjAwLjUsMjUyICIgZmlsbD0ibm9uZSIgc3R5bGU9InN0cm9rZTojMDAwMDAwO3N0cm9rZS13aWR0aDoxLjU7Ii8+PGxpbmUgc3R5bGU9InN0cm9rZTojMDAwMDAwO3N0cm9rZS13aWR0aDoxLjU7IiB4MT0iNTk4IiB4Mj0iNjM5IiB5MT0iMjcyLjk4NDQiIHkyPSIyNzIuOTg0NCIvPjx0ZXh0IGZpbGw9IiMwMDAwMDAiIGZvbnQtZmFtaWx5PSJzYW5zLXNlcmlmIiBmb250LXNpemU9IjE0IiBmb250LXdlaWdodD0iYm9sZCIgbGVuZ3RoQWRqdXN0PSJzcGFjaW5nIiB0ZXh0TGVuZ3RoPSIyOCIgeD0iNjAyIiB5PSIyNjcuMjM0NCI+ZmlsZTwvdGV4dD48L2c+PCEtLWNsdXN0ZXIgdG9vbHMtLT48ZyBpZD0iY2x1c3Rlcl90b29scyI+PHBhdGggZD0iTTQ1Ni41LDI1MiBMNDkyLjUsMjUyIEEzLjc1LDMuNzUgMCAwIDEgNDk1LDI1NC41IEw1MDIsMjcyLjk4NDQgTDU3MS41LDI3Mi45ODQ0IEEyLjUsMi41IDAgMCAxIDU3NCwyNzUuNDg0NCBMNTc0LDM0Ni41IEEyLjUsMi41IDAgMCAxIDU3MS41LDM0OSBMNDU2LjUsMzQ5IEEyLjUsMi41IDAgMCAxIDQ1NCwzNDYuNSBMNDU0LDI1NC41IEEyLjUsMi41IDAgMCAxIDQ1Ni41LDI1MiAiIGZpbGw9Im5vbmUiIHN0eWxlPSJzdHJva2U6IzAwMDAwMDtzdHJva2Utd2lkdGg6MS41OyIvPjxsaW5lIHN0eWxlPSJzdHJva2U6IzAwMDAwMDtzdHJva2Utd2lkdGg6MS41OyIgeDE9IjQ1NCIgeDI9IjUwMiIgeTE9IjI3Mi45ODQ0IiB5Mj0iMjcyLjk4NDQiLz48dGV4dCBmaWxsPSIjMDAwMDAwIiBmb250LWZhbWlseT0ic2Fucy1zZXJpZiIgZm9udC1zaXplPSIxNCIgZm9udC13ZWlnaHQ9ImJvbGQiIGxlbmd0aEFkanVzdD0ic3BhY2luZyIgdGV4dExlbmd0aD0iMzUiIHg9IjQ1OCIgeT0iMjY3LjIzNDQiPnRvb2xzPC90ZXh0PjwvZz48IS0tY2x1c3RlciBkYi0tPjxnIGlkPSJjbHVzdGVyX2RiIj48cGF0aCBkPSJNMzE4LjUsMjUyIEwzMzMuNSwyNTIgQTMuNzUsMy43NSAwIDAgMSAzMzYsMjU0LjUgTDM0MywyNzIuOTg0NCBMNDI3LjUsMjcyLjk4NDQgQTIuNSwyLjUgMCAwIDEgNDMwLDI3NS40ODQ0IEw0MzAsMzQ2LjUgQTIuNSwyLjUgMCAwIDEgNDI3LjUsMzQ5IEwzMTguNSwzNDkgQTIuNSwyLjUgMCAwIDEgMzE2LDM0Ni41IEwzMTYsMjU0LjUgQTIuNSwyLjUgMCAwIDEgMzE4LjUsMjUyICIgZmlsbD0ibm9uZSIgc3R5bGU9InN0cm9rZTojMDAwMDAwO3N0cm9rZS13aWR0aDoxLjU7Ii8+PGxpbmUgc3R5bGU9InN0cm9rZTojMDAwMDAwO3N0cm9rZS13aWR0aDoxLjU7IiB4MT0iMzE2IiB4Mj0iMzQzIiB5MT0iMjcyLjk4NDQiIHkyPSIyNzIuOTg0NCIvPjx0ZXh0IGZpbGw9IiMwMDAwMDAiIGZvbnQtZmFtaWx5PSJzYW5zLXNlcmlmIiBmb250LXNpemU9IjE0IiBmb250LXdlaWdodD0iYm9sZCIgbGVuZ3RoQWRqdXN0PSJzcGFjaW5nIiB0ZXh0TGVuZ3RoPSIxNCIgeD0iMzIwIiB5PSIyNjcuMjM0NCI+ZGI8L3RleHQ+PC9nPjwhLS1jbHVzdGVyIGNvbmZpZy0tPjxnIGlkPSJjbHVzdGVyX2NvbmZpZyI+PHBhdGggZD0iTTE1Mi41LDI1MiBMMTk1LjUsMjUyIEEzLjc1LDMuNzUgMCAwIDEgMTk4LDI1NC41IEwyMDUsMjcyLjk4NDQgTDI4OS41LDI3Mi45ODQ0IEEyLjUsMi41IDAgMCAxIDI5MiwyNzUuNDg0NCBMMjkyLDM0Ni41IEEyLjUsMi41IDAgMCAxIDI4OS41LDM0OSBMMTUyLjUsMzQ5IEEyLjUsMi41IDAgMCAxIDE1MCwzNDYuNSBMMTUwLDI1NC41IEEyLjUsMi41IDAgMCAxIDE1Mi41LDI1MiAiIGZpbGw9Im5vbmUiIHN0eWxlPSJzdHJva2U6IzAwMDAwMDtzdHJva2Utd2lkdGg6MS41OyIvPjxsaW5lIHN0eWxlPSJzdHJva2U6IzAwMDAwMDtzdHJva2Utd2lkdGg6MS41OyIgeDE9IjE1MCIgeDI9IjIwNSIgeTE9IjI3Mi45ODQ0IiB5Mj0iMjcyLjk4NDQiLz48dGV4dCBmaWxsPSIjMDAwMDAwIiBmb250LWZhbWlseT0ic2Fucy1zZXJpZiIgZm9udC1zaXplPSIxNCIgZm9udC13ZWlnaHQ9ImJvbGQiIGxlbmd0aEFkanVzdD0ic3BhY2luZyIgdGV4dExlbmd0aD0iNDIiIHg9IjE1NCIgeT0iMjY3LjIzNDQiPmNvbmZpZzwvdGV4dD48L2c+PCEtLWNsYXNzIENhY2hlVXRpbHMtLT48ZyBpZD0iZWxlbV9DYWNoZVV0aWxzIj48cmVjdCBjb2RlTGluZT0iMSIgZmlsbD0iI0YxRjFGMSIgaGVpZ2h0PSI0OCIgaWQ9IkNhY2hlVXRpbHMiIHJ4PSIyLjUiIHJ5PSIyLjUiIHN0eWxlPSJzdHJva2U6IzE4MTgxODtzdHJva2Utd2lkdGg6MC41OyIgd2lkdGg9IjEwMiIgeD0iOTEwIiB5PSIyODUiLz48ZWxsaXBzZSBjeD0iOTI1IiBjeT0iMzAxIiBmaWxsPSIjQUREMUIyIiByeD0iMTEiIHJ5PSIxMSIgc3R5bGU9InN0cm9rZTojMTgxODE4O3N0cm9rZS13aWR0aDoxLjA7Ii8+PHBhdGggZD0iTTkyMi42MjUsMzA1LjI1IEw5MjIuNjI1LDMwNyBMOTI3LjU2MjUsMzA3IEw5MjcuNTYyNSwzMDUuMjUgTDkyMi42MjUsMzA1LjI1IFogTTkyMy4zMTI1LDMwNS45Mzc1IFE5MjMuMzEyNSwzMDUuOTM3NSA5MjMuMzEyNSwyOTYuNzUgTDkyMS41NjI1LDI5Ni43NSBROTIxLjU2MjUsMjk2Ljc1IDkyMS41NjI1LDMwNS45Mzc1IEw5MjMuMzEyNSwzMDUuOTM3NSBaIE05MjYuODc1LDMwNS45Mzc1IEw5MjguNjI1LDMwNS45Mzc1IFE5MjguNjI1LDMwNS45Mzc1IDkyOC42MjUsMzAzLjEyNSBMOTI2Ljg3NSwzMDMuMTI1IFE5MjYuODc1LDMwMy4xMjUgOTI2Ljg3NSwzMDUuOTM3NSBaIE05MjYuODc1LDI5Ni43NSBROTI2Ljg3NSwyOTYuNzUgOTI2Ljg3NSwyOTkuNTYyNSBMOTI4LjYyNSwyOTkuNTYyNSBROTI4LjYyNSwyOTkuNTYyNSA5MjguNjI1LDI5Ni43NSBMOTI2Ljg3NSwyOTYuNzUgWiBNOTIyLjYyNSwyOTcuNDM3NSBMOTI3LjU2MjUsMjk3LjQzNzUgTDkyNy41NjI1LDI5NS42ODc1IEw5MjIuNjI1LDI5NS42ODc1IEw5MjIuNjI1LDI5Ny40Mzc1IFogIiBmaWxsPSIjMDAwMDAwIi8+PHRleHQgZmlsbD0iIzAwMDAwMCIgZm9udC1mYW1pbHk9InNhbnMtc2VyaWYiIGZvbnQtc2l6ZT0iMTQiIGxlbmd0aEFkanVzdD0ic3BhY2luZyIgdGV4dExlbmd0aD0iNzAiIHg9IjkzOSIgeT0iMzA2Ljc0MjIiPkNhY2hlVXRpbHM8L3RleHQ+PGxpbmUgc3R5bGU9InN0cm9rZTojMTgxODE4O3N0cm9rZS13aWR0aDowLjU7IiB4MT0iOTExIiB4Mj0iMTAxMSIgeTE9IjMxNyIgeTI9IjMxNyIvPjxsaW5lIHN0eWxlPSJzdHJva2U6IzE4MTgxODtzdHJva2Utd2lkdGg6MC41OyIgeDE9IjkxMSIgeDI9IjEwMTEiIHkxPSIzMjUiIHkyPSIzMjUiLz48L2c+PCEtLWNsYXNzIExvZ1V0aWxzLS0+PGcgaWQ9ImVsZW1fTG9nVXRpbHMiPjxyZWN0IGNvZGVMaW5lPSIzIiBmaWxsPSIjRjFGMUYxIiBoZWlnaHQ9IjQ4IiBpZD0iTG9nVXRpbHMiIHJ4PSIyLjUiIHJ5PSIyLjUiIHN0eWxlPSJzdHJva2U6IzE4MTgxODtzdHJva2Utd2lkdGg6MC41OyIgd2lkdGg9Ijg4IiB4PSI3NjYiIHk9IjI4NSIvPjxlbGxpcHNlIGN4PSI3ODEiIGN5PSIzMDEiIGZpbGw9IiNBREQxQjIiIHJ4PSIxMSIgcnk9IjExIiBzdHlsZT0ic3Ryb2tlOiMxODE4MTg7c3Ryb2tlLXdpZHRoOjEuMDsiLz48cGF0aCBkPSJNNzc4LjYyNSwzMDUuMjUgTDc3OC42MjUsMzA3IEw3ODMuNTYyNSwzMDcgTDc4My41NjI1LDMwNS4yNSBMNzc4LjYyNSwzMDUuMjUgWiBNNzc5LjMxMjUsMzA1LjkzNzUgUTc3OS4zMTI1LDMwNS45Mzc1IDc3OS4zMTI1LDI5Ni43NSBMNzc3LjU2MjUsMjk2Ljc1IFE3NzcuNTYyNSwyOTYuNzUgNzc3LjU2MjUsMzA1LjkzNzUgTDc3OS4zMTI1LDMwNS45Mzc1IFogTTc4Mi44NzUsMzA1LjkzNzUgTDc4NC42MjUsMzA1LjkzNzUgUTc4NC42MjUsMzA1LjkzNzUgNzg0LjYyNSwzMDMuMTI1IEw3ODIuODc1LDMwMy4xMjUgUTc4Mi44NzUsMzAzLjEyNSA3ODIuODc1LDMwNS45Mzc1IFogTTc4Mi44NzUsMjk2Ljc1IFE3ODIuODc1LDI5Ni43NSA3ODIuODc1LDI5OS41NjI1IEw3ODQuNjI1LDI5OS41NjI1IFE3ODQuNjI1LDI5OS41NjI1IDc4NC42MjUsMjk2Ljc1IEw3ODIuODc1LDI5Ni43NSBaIE03NzguNjI1LDI5Ny40Mzc1IEw3ODMuNTYyNSwyOTcuNDM3NSBMNzgzLjU2MjUsMjk1LjY4NzUgTDc3OC42MjUsMjk1LjY4NzUgTDc3OC42MjUsMjk3LjQzNzUgWiAiIGZpbGw9IiMwMDAwMDAiLz48dGV4dCBmaWxsPSIjMDAwMDAwIiBmb250LWZhbWlseT0ic2Fucy1zZXJpZiIgZm9udC1zaXplPSIxNCIgbGVuZ3RoQWRqdXN0PSJzcGFjaW5nIiB0ZXh0TGVuZ3RoPSI1NiIgeD0iNzk1IiB5PSIzMDYuNzQyMiI+TG9nVXRpbHM8L3RleHQ+PGxpbmUgc3R5bGU9InN0cm9rZTojMTgxODE4O3N0cm9rZS13aWR0aDowLjU7IiB4MT0iNzY3IiB4Mj0iODUzIiB5MT0iMzE3IiB5Mj0iMzE3Ii8+PGxpbmUgc3R5bGU9InN0cm9rZTojMTgxODE4O3N0cm9rZS13aWR0aDowLjU7IiB4MT0iNzY3IiB4Mj0iODUzIiB5MT0iMzI1IiB5Mj0iMzI1Ii8+PC9nPjwhLS1jbGFzcyBGaWxlVXRpbHMtLT48ZyBpZD0iZWxlbV9GaWxlVXRpbHMiPjxyZWN0IGNvZGVMaW5lPSI1IiBmaWxsPSIjRjFGMUYxIiBoZWlnaHQ9IjQ4IiBpZD0iRmlsZVV0aWxzIiByeD0iMi41IiByeT0iMi41IiBzdHlsZT0ic3Ryb2tlOiMxODE4MTg7c3Ryb2tlLXdpZHRoOjAuNTsiIHdpZHRoPSI5NSIgeD0iNjE0LjUiIHk9IjI4NSIvPjxlbGxpcHNlIGN4PSI2MjkuNSIgY3k9IjMwMSIgZmlsbD0iI0FERDFCMiIgcng9IjExIiByeT0iMTEiIHN0eWxlPSJzdHJva2U6IzE4MTgxODtzdHJva2Utd2lkdGg6MS4wOyIvPjxwYXRoIGQ9Ik02MjcuMTI1LDMwNS4yNSBMNjI3LjEyNSwzMDcgTDYzMi4wNjI1LDMwNyBMNjMyLjA2MjUsMzA1LjI1IEw2MjcuMTI1LDMwNS4yNSBaIE02MjcuODEyNSwzMDUuOTM3NSBRNjI3LjgxMjUsMzA1LjkzNzUgNjI3LjgxMjUsMjk2Ljc1IEw2MjYuMDYyNSwyOTYuNzUgUTYyNi4wNjI1LDI5Ni43NSA2MjYuMDYyNSwzMDUuOTM3NSBMNjI3LjgxMjUsMzA1LjkzNzUgWiBNNjMxLjM3NSwzMDUuOTM3NSBMNjMzLjEyNSwzMDUuOTM3NSBRNjMzLjEyNSwzMDUuOTM3NSA2MzMuMTI1LDMwMy4xMjUgTDYzMS4zNzUsMzAzLjEyNSBRNjMxLjM3NSwzMDMuMTI1IDYzMS4zNzUsMzA1LjkzNzUgWiBNNjMxLjM3NSwyOTYuNzUgUTYzMS4zNzUsMjk2Ljc1IDYzMS4zNzUsMjk5LjU2MjUgTDYzMy4xMjUsMjk5LjU2MjUgUTYzMy4xMjUsMjk5LjU2MjUgNjMzLjEyNSwyOTYuNzUgTDYzMS4zNzUsMjk2Ljc1IFogTTYyNy4xMjUsMjk3LjQzNzUgTDYzMi4wNjI1LDI5Ny40Mzc1IEw2MzIuMDYyNSwyOTUuNjg3NSBMNjI3LjEyNSwyOTUuNjg3NSBMNjI3LjEyNSwyOTcuNDM3NSBaICIgZmlsbD0iIzAwMDAwMCIvPjx0ZXh0IGZpbGw9IiMwMDAwMDAiIGZvbnQtZmFtaWx5PSJzYW5zLXNlcmlmIiBmb250LXNpemU9IjE0IiBsZW5ndGhBZGp1c3Q9InNwYWNpbmciIHRleHRMZW5ndGg9IjYzIiB4PSI2NDMuNSIgeT0iMzA2Ljc0MjIiPkZpbGVVdGlsczwvdGV4dD48bGluZSBzdHlsZT0ic3Ryb2tlOiMxODE4MTg7c3Ryb2tlLXdpZHRoOjAuNTsiIHgxPSI2MTUuNSIgeDI9IjcwOC41IiB5MT0iMzE3IiB5Mj0iMzE3Ii8+PGxpbmUgc3R5bGU9InN0cm9rZTojMTgxODE4O3N0cm9rZS13aWR0aDowLjU7IiB4MT0iNjE1LjUiIHgyPSI3MDguNSIgeTE9IjMyNSIgeTI9IjMyNSIvPjwvZz48IS0tY2xhc3MgWmlwVG9vbHMtLT48ZyBpZD0iZWxlbV9aaXBUb29scyI+PHJlY3QgY29kZUxpbmU9IjciIGZpbGw9IiNGMUYxRjEiIGhlaWdodD0iNDgiIGlkPSJaaXBUb29scyIgcng9IjIuNSIgcnk9IjIuNSIgc3R5bGU9InN0cm9rZTojMTgxODE4O3N0cm9rZS13aWR0aDowLjU7IiB3aWR0aD0iODgiIHg9IjQ3MCIgeT0iMjg1Ii8+PGVsbGlwc2UgY3g9IjQ4NSIgY3k9IjMwMSIgZmlsbD0iI0FERDFCMiIgcng9IjExIiByeT0iMTEiIHN0eWxlPSJzdHJva2U6IzE4MTgxODtzdHJva2Utd2lkdGg6MS4wOyIvPjxwYXRoIGQ9Ik00ODIuNjI1LDMwNS4yNSBMNDgyLjYyNSwzMDcgTDQ4Ny41NjI1LDMwNyBMNDg3LjU2MjUsMzA1LjI1IEw0ODIuNjI1LDMwNS4yNSBaIE00ODMuMzEyNSwzMDUuOTM3NSBRNDgzLjMxMjUsMzA1LjkzNzUgNDgzLjMxMjUsMjk2Ljc1IEw0ODEuNTYyNSwyOTYuNzUgUTQ4MS41NjI1LDI5Ni43NSA0ODEuNTYyNSwzMDUuOTM3NSBMNDgzLjMxMjUsMzA1LjkzNzUgWiBNNDg2Ljg3NSwzMDUuOTM3NSBMNDg4LjYyNSwzMDUuOTM3NSBRNDg4LjYyNSwzMDUuOTM3NSA0ODguNjI1LDMwMy4xMjUgTDQ4Ni44NzUsMzAzLjEyNSBRNDg2Ljg3NSwzMDMuMTI1IDQ4Ni44NzUsMzA1LjkzNzUgWiBNNDg2Ljg3NSwyOTYuNzUgUTQ4Ni44NzUsMjk2Ljc1IDQ4Ni44NzUsMjk5LjU2MjUgTDQ4OC42MjUsMjk5LjU2MjUgUTQ4OC42MjUsMjk5LjU2MjUgNDg4LjYyNSwyOTYuNzUgTDQ4Ni44NzUsMjk2Ljc1IFogTTQ4Mi42MjUsMjk3LjQzNzUgTDQ4Ny41NjI1LDI5Ny40Mzc1IEw0ODcuNTYyNSwyOTUuNjg3NSBMNDgyLjYyNSwyOTUuNjg3NSBMNDgyLjYyNSwyOTcuNDM3NSBaICIgZmlsbD0iIzAwMDAwMCIvPjx0ZXh0IGZpbGw9IiMwMDAwMDAiIGZvbnQtZmFtaWx5PSJzYW5zLXNlcmlmIiBmb250LXNpemU9IjE0IiBsZW5ndGhBZGp1c3Q9InNwYWNpbmciIHRleHRMZW5ndGg9IjU2IiB4PSI0OTkiIHk9IjMwNi43NDIyIj5aaXBUb29sczwvdGV4dD48bGluZSBzdHlsZT0ic3Ryb2tlOiMxODE4MTg7c3Ryb2tlLXdpZHRoOjAuNTsiIHgxPSI0NzEiIHgyPSI1NTciIHkxPSIzMTciIHkyPSIzMTciLz48bGluZSBzdHlsZT0ic3Ryb2tlOiMxODE4MTg7c3Ryb2tlLXdpZHRoOjAuNTsiIHgxPSI0NzEiIHgyPSI1NTciIHkxPSIzMjUiIHkyPSIzMjUiLz48L2c+PCEtLWNsYXNzIERCVXRpbHMtLT48ZyBpZD0iZWxlbV9EQlV0aWxzIj48cmVjdCBjb2RlTGluZT0iOSIgZmlsbD0iI0YxRjFGMSIgaGVpZ2h0PSI0OCIgaWQ9IkRCVXRpbHMiIHJ4PSIyLjUiIHJ5PSIyLjUiIHN0eWxlPSJzdHJva2U6IzE4MTgxODtzdHJva2Utd2lkdGg6MC41OyIgd2lkdGg9IjgxIiB4PSIzMzIuNSIgeT0iMjg1Ii8+PGVsbGlwc2UgY3g9IjM0Ny41IiBjeT0iMzAxIiBmaWxsPSIjQUREMUIyIiByeD0iMTEiIHJ5PSIxMSIgc3R5bGU9InN0cm9rZTojMTgxODE4O3N0cm9rZS13aWR0aDoxLjA7Ii8+PHBhdGggZD0iTTM0NS4xMjUsMzA1LjI1IEwzNDUuMTI1LDMwNyBMMzUwLjA2MjUsMzA3IEwzNTAuMDYyNSwzMDUuMjUgTDM0NS4xMjUsMzA1LjI1IFogTTM0NS44MTI1LDMwNS45Mzc1IFEzNDUuODEyNSwzMDUuOTM3NSAzNDUuODEyNSwyOTYuNzUgTDM0NC4wNjI1LDI5Ni43NSBRMzQ0LjA2MjUsMjk2Ljc1IDM0NC4wNjI1LDMwNS45Mzc1IEwzNDUuODEyNSwzMDUuOTM3NSBaIE0zNDkuMzc1LDMwNS45Mzc1IEwzNTEuMTI1LDMwNS45Mzc1IFEzNTEuMTI1LDMwNS45Mzc1IDM1MS4xMjUsMzAzLjEyNSBMMzQ5LjM3NSwzMDMuMTI1IFEzNDkuMzc1LDMwMy4xMjUgMzQ5LjM3NSwzMDUuOTM3NSBaIE0zNDkuMzc1LDI5Ni43NSBRMzQ5LjM3NSwyOTYuNzUgMzQ5LjM3NSwyOTkuNTYyNSBMMzUxLjEyNSwyOTkuNTYyNSBRMzUxLjEyNSwyOTkuNTYyNSAzNTEuMTI1LDI5Ni43NSBMMzQ5LjM3NSwyOTYuNzUgWiBNMzQ1LjEyNSwyOTcuNDM3NSBMMzUwLjA2MjUsMjk3LjQzNzUgTDM1MC4wNjI1LDI5NS42ODc1IEwzNDUuMTI1LDI5NS42ODc1IEwzNDUuMTI1LDI5Ny40Mzc1IFogIiBmaWxsPSIjMDAwMDAwIi8+PHRleHQgZmlsbD0iIzAwMDAwMCIgZm9udC1mYW1pbHk9InNhbnMtc2VyaWYiIGZvbnQtc2l6ZT0iMTQiIGxlbmd0aEFkanVzdD0ic3BhY2luZyIgdGV4dExlbmd0aD0iNDkiIHg9IjM2MS41IiB5PSIzMDYuNzQyMiI+REJVdGlsczwvdGV4dD48bGluZSBzdHlsZT0ic3Ryb2tlOiMxODE4MTg7c3Ryb2tlLXdpZHRoOjAuNTsiIHgxPSIzMzMuNSIgeDI9IjQxMi41IiB5MT0iMzE3IiB5Mj0iMzE3Ii8+PGxpbmUgc3R5bGU9InN0cm9rZTojMTgxODE4O3N0cm9rZS13aWR0aDowLjU7IiB4MT0iMzMzLjUiIHgyPSI0MTIuNSIgeTE9IjMyNSIgeTI9IjMyNSIvPjwvZz48IS0tY2xhc3MgQXBvbGxvVXRpbHMtLT48ZyBpZD0iZWxlbV9BcG9sbG9VdGlscyI+PHJlY3QgY29kZUxpbmU9IjExIiBmaWxsPSIjRjFGMUYxIiBoZWlnaHQ9IjQ4IiBpZD0iQXBvbGxvVXRpbHMiIHJ4PSIyLjUiIHJ5PSIyLjUiIHN0eWxlPSJzdHJva2U6IzE4MTgxODtzdHJva2Utd2lkdGg6MC41OyIgd2lkdGg9IjEwOSIgeD0iMTY2LjUiIHk9IjI4NSIvPjxlbGxpcHNlIGN4PSIxODEuNSIgY3k9IjMwMSIgZmlsbD0iI0FERDFCMiIgcng9IjExIiByeT0iMTEiIHN0eWxlPSJzdHJva2U6IzE4MTgxODtzdHJva2Utd2lkdGg6MS4wOyIvPjxwYXRoIGQ9Ik0xNzkuMTI1LDMwNS4yNSBMMTc5LjEyNSwzMDcgTDE4NC4wNjI1LDMwNyBMMTg0LjA2MjUsMzA1LjI1IEwxNzkuMTI1LDMwNS4yNSBaIE0xNzkuODEyNSwzMDUuOTM3NSBRMTc5LjgxMjUsMzA1LjkzNzUgMTc5LjgxMjUsMjk2Ljc1IEwxNzguMDYyNSwyOTYuNzUgUTE3OC4wNjI1LDI5Ni43NSAxNzguMDYyNSwzMDUuOTM3NSBMMTc5LjgxMjUsMzA1LjkzNzUgWiBNMTgzLjM3NSwzMDUuOTM3NSBMMTg1LjEyNSwzMDUuOTM3NSBRMTg1LjEyNSwzMDUuOTM3NSAxODUuMTI1LDMwMy4xMjUgTDE4My4zNzUsMzAzLjEyNSBRMTgzLjM3NSwzMDMuMTI1IDE4My4zNzUsMzA1LjkzNzUgWiBNMTgzLjM3NSwyOTYuNzUgUTE4My4zNzUsMjk2Ljc1IDE4My4zNzUsMjk5LjU2MjUgTDE4NS4xMjUsMjk5LjU2MjUgUTE4NS4xMjUsMjk5LjU2MjUgMTg1LjEyNSwyOTYuNzUgTDE4My4zNzUsMjk2Ljc1IFogTTE3OS4xMjUsMjk3LjQzNzUgTDE4NC4wNjI1LDI5Ny40Mzc1IEwxODQuMDYyNSwyOTUuNjg3NSBMMTc5LjEyNSwyOTUuNjg3NSBMMTc5LjEyNSwyOTcuNDM3NSBaICIgZmlsbD0iIzAwMDAwMCIvPjx0ZXh0IGZpbGw9IiMwMDAwMDAiIGZvbnQtZmFtaWx5PSJzYW5zLXNlcmlmIiBmb250LXNpemU9IjE0IiBsZW5ndGhBZGp1c3Q9InNwYWNpbmciIHRleHRMZW5ndGg9Ijc3IiB4PSIxOTUuNSIgeT0iMzA2Ljc0MjIiPkFwb2xsb1V0aWxzPC90ZXh0PjxsaW5lIHN0eWxlPSJzdHJva2U6IzE4MTgxODtzdHJva2Utd2lkdGg6MC41OyIgeDE9IjE2Ny41IiB4Mj0iMjc0LjUiIHkxPSIzMTciIHkyPSIzMTciLz48bGluZSBzdHlsZT0ic3Ryb2tlOiMxODE4MTg7c3Ryb2tlLXdpZHRoOjAuNTsiIHgxPSIxNjcuNSIgeDI9IjI3NC41IiB5MT0iMzI1IiB5Mj0iMzI1Ii8+PC9nPjwhLS1TUkM9W2RPcXgzaThtNDRKeGQyOGRjM2xtNEhLYkQ3SVJaTUVDRFh2QmNyMDRTTlVJWFhoU0Y4cjZVWkRndWp3RWFaOFV5WEdlSHRKMlBTdkd1em9wWEJtTTdnMll6dTMzbmtrS3BEak55c3hxUHpxT1NNUWlLT1RhMFFTTERWOTRja0VNb2NLQlZ5ZnpYLUUtdmJNUFhuSW5BcEpaVC0wM10tLT48L2c+PC9zdmc+;" vertex="1" parent="1">
            <mxGeometry x="-2940" y="120" width="1179" height="500" as="geometry" />
          </mxCell>
        </UserObject>
      </root>
    </mxGraphModel>
  </diagram>
</mxfile>
